<svg xmlns="http://www.w3.org/2000/svg" width="20.953" height="18.334" viewBox="0 0 20.953 18.334">
  <g id="branches-icon" transform="translate(0 -32)" opacity="0.3">
    <g id="Group_1070" data-name="Group 1070" transform="translate(0 32)">
      <g id="Group_1069" data-name="Group 1069">
        <path id="Path_290" data-name="Path 290" d="M20.933,37.735l-1.185-4.743A1.309,1.309,0,0,0,18.478,32h-16a1.311,1.311,0,0,0-1.272.991L.02,37.735a.641.641,0,0,0-.02.158,3.2,3.2,0,0,0,3.11,3.274A3.056,3.056,0,0,0,5.566,39.9a3.014,3.014,0,0,0,4.911,0,3.014,3.014,0,0,0,4.911,0,3.054,3.054,0,0,0,2.455,1.266,3.2,3.2,0,0,0,3.11-3.274A.641.641,0,0,0,20.933,37.735Z" transform="translate(0 -32)"/>
      </g>
    </g>
    <g id="Group_1072" data-name="Group 1072" transform="translate(1.31 41.706)">
      <g id="Group_1071" data-name="Group 1071">
        <path id="Path_291" data-name="Path 291" d="M48.533,269.954a4.285,4.285,0,0,1-2.455-.77,4.407,4.407,0,0,1-4.911,0,4.407,4.407,0,0,1-4.911,0,4.251,4.251,0,0,1-4.256.363V276.5a1.31,1.31,0,0,0,1.31,1.31h5.238v-5.238h5.238v5.238h5.238a1.31,1.31,0,0,0,1.31-1.31v-6.955A4.249,4.249,0,0,1,48.533,269.954Z" transform="translate(-32 -269.184)"/>
      </g>
    </g>
  </g>
</svg>
