<svg xmlns="http://www.w3.org/2000/svg" width="23.808" height="19.335" viewBox="0 0 23.808 19.335">
  <g id="branches-6" transform="translate(0 -48.096)" opacity="0.5">
    <g id="Group_1300" data-name="Group 1300" transform="translate(0 48.096)">
      <g id="Group_1299" data-name="Group 1299" transform="translate(0 0)">
        <path id="Path_340" data-name="Path 340" d="M22.713,66.733h-.4V56.387a3.237,3.237,0,0,0,1.491-2.724.349.349,0,0,0-.046-.173l-2.767-4.843a1.1,1.1,0,0,0-.95-.551H3.763a1.1,1.1,0,0,0-.95.551L.046,53.49A.349.349,0,0,0,0,53.663a3.237,3.237,0,0,0,1.491,2.724V66.733h-.4a.349.349,0,1,0,0,.7H22.713a.349.349,0,1,0,0-.7ZM.722,54.012H1.84a.349.349,0,0,0,0-.7H.95l2.469-4.321a.4.4,0,0,1,.344-.2H20.044a.4.4,0,0,1,.344.2l2.469,4.321h-.89a.349.349,0,1,0,0,.7h1.118a2.54,2.54,0,0,1-5.031,0h2.422a.349.349,0,0,0,0-.7H3.331a.349.349,0,1,0,0,.7H5.753a2.54,2.54,0,0,1-5.031,0Zm16.586,0a2.539,2.539,0,0,1-5.031,0Zm-5.778,0a2.539,2.539,0,0,1-5.031,0Zm8.225,12.721H15.98V65.567h3.775Zm0-1.864H15.98V58.485h3.775Zm1.864,1.864H20.453v-8.6a.349.349,0,0,0-.349-.349H15.631a.349.349,0,0,0-.349.349v8.6H2.188V56.725a3.234,3.234,0,0,0,3.938-1.6,3.237,3.237,0,0,0,5.778,0,3.237,3.237,0,0,0,5.778,0,3.234,3.234,0,0,0,3.938,1.6Z" transform="translate(0 -48.096)" fill="#707070"/>
      </g>
    </g>
    <g id="Group_1302" data-name="Group 1302" transform="translate(3.355 57.787)">
      <g id="Group_1301" data-name="Group 1301">
        <path id="Path_341" data-name="Path 341" d="M82.558,256.516H72.494a.349.349,0,0,0-.349.349v7.082a.349.349,0,0,0,.349.349H82.558a.349.349,0,0,0,.349-.349v-7.082A.349.349,0,0,0,82.558,256.516Zm-.349,7.082H72.842v-6.385h9.367Z" transform="translate(-72.145 -256.516)" fill="#707070"/>
      </g>
    </g>
  </g>
</svg>
