<svg xmlns="http://www.w3.org/2000/svg" width="23.34" height="18.955" viewBox="0 0 23.34 18.955">
  <g id="branch-icon" transform="translate(0 -48.096)">
    <g id="Group_76" data-name="Group 76" transform="translate(0 48.096)">
      <g id="Group_75" data-name="Group 75" transform="translate(0 0)">
        <path id="Path_24" data-name="Path 24" d="M22.268,66.367h-.389V56.224a3.173,3.173,0,0,0,1.462-2.67.342.342,0,0,0-.045-.17l-2.713-4.748a1.075,1.075,0,0,0-.931-.541H3.689a1.075,1.075,0,0,0-.931.541L.045,53.384a.342.342,0,0,0-.045.17,3.173,3.173,0,0,0,1.462,2.67V66.367H1.073a.342.342,0,1,0,0,.684H22.268a.342.342,0,1,0,0-.684ZM.707,53.9H1.8a.342.342,0,1,0,0-.684H.931l2.421-4.236a.39.39,0,0,1,.338-.2H19.651a.39.39,0,0,1,.338.2l2.421,4.236h-.873a.342.342,0,0,0,0,.684h1.1a2.49,2.49,0,0,1-4.933,0h2.375a.342.342,0,0,0,0-.684H3.265a.342.342,0,1,0,0,.684H5.64a2.49,2.49,0,0,1-4.933,0Zm16.261,0a2.49,2.49,0,0,1-4.932,0Zm-5.664,0a2.49,2.49,0,0,1-4.932,0Zm8.063,12.472h-3.7V65.224h3.7Zm0-1.827h-3.7V58.281h3.7Zm1.827,1.827H20.052V57.939a.342.342,0,0,0-.342-.342H15.325a.342.342,0,0,0-.342.342v8.428H2.145V56.556a3.171,3.171,0,0,0,3.861-1.57,3.173,3.173,0,0,0,5.664,0,3.173,3.173,0,0,0,5.664,0,3.171,3.171,0,0,0,3.861,1.57Z" transform="translate(0 -48.096)"/>
      </g>
    </g>
    <g id="Group_78" data-name="Group 78" transform="translate(3.289 57.597)">
      <g id="Group_77" data-name="Group 77" transform="translate(0 0)">
        <path id="Path_25" data-name="Path 25" d="M82.354,256.516H72.487a.342.342,0,0,0-.342.342V263.8a.342.342,0,0,0,.342.342h9.867a.342.342,0,0,0,.342-.342v-6.943A.342.342,0,0,0,82.354,256.516Zm-.342,6.943H72.829V257.2h9.183Z" transform="translate(-72.145 -256.516)"/>
      </g>
    </g>
  </g>
</svg>
