<svg xmlns="http://www.w3.org/2000/svg" width="80.239" height="44" viewBox="0 0 80.239 44">
  <g id="car-pick-up-icon" transform="translate(-66.708 -309)">
    <circle id="Ellipse_5" data-name="Ellipse 5" cx="22" cy="22" r="22" transform="translate(66.708 309)" fill="#faf7f0"/>
    <g id="car_1_" data-name="car (1)" transform="translate(86.708 178.167)">
      <g id="Group_126" data-name="Group 126" transform="translate(42.167 156.364)">
        <g id="Group_125" data-name="Group 125" transform="translate(0 0)">
          <path id="Path_255" data-name="Path 255" d="M363.42,287.834a5.02,5.02,0,1,0,5.02,5.02A5.026,5.026,0,0,0,363.42,287.834Zm0,8.032a3.012,3.012,0,1,1,3.012-3.012A3.016,3.016,0,0,1,363.42,295.866Z" transform="translate(-358.4 -287.834)" fill="#361041"/>
        </g>
      </g>
      <g id="Group_128" data-name="Group 128" transform="translate(8.032 156.364)">
        <g id="Group_127" data-name="Group 127" transform="translate(0 0)">
          <path id="Path_256" data-name="Path 256" d="M73.286,287.834a5.02,5.02,0,1,0,5.02,5.02A5.026,5.026,0,0,0,73.286,287.834Zm0,8.032a3.012,3.012,0,1,1,3.012-3.012A3.016,3.016,0,0,1,73.286,295.866Z" transform="translate(-68.266 -287.834)" fill="#361041"/>
        </g>
      </g>
      <g id="Group_130" data-name="Group 130" transform="translate(0 138.833)">
        <g id="Group_129" data-name="Group 129">
          <path id="Path_257" data-name="Path 257" d="M59.235,156.364V150.34a1,1,0,0,0-.687-.953L52.883,147.5c-2.133-3.613-5.066-7.052-11.547-8.187l-.036-.006c-11.967-1.655-20.953,1.045-26.722,8.027-6.669.1-13.574,2.2-13.574,6.02v3.012a1,1,0,0,0-1,1v4.016a1,1,0,0,0,1,1H5.02a1,1,0,0,0,1-1,7.028,7.028,0,0,1,14.056,0,1,1,0,0,0,1,1H39.155a1,1,0,0,0,1-1,7.028,7.028,0,0,1,14.056,0,1,1,0,0,0,1,1h4.016a1,1,0,0,0,1-1v-4.016A1,1,0,0,0,59.235,156.364Zm-13-13.2a13.5,13.5,0,0,1,4.17,4.16h-4.21Zm-12.1-2.326a45.662,45.662,0,0,1,6.872.452,16.682,16.682,0,0,1,3.227.891l-.049,5.145H34.135Zm-2.008.085v6.4H17.291C21.012,143.49,25.92,141.368,32.127,140.926Zm26.1,19.453H56.168a9.037,9.037,0,0,0-17.961,0H22.032a9.037,9.037,0,0,0-17.961,0H2.008v-2.008a1,1,0,0,0,1-1v-3.012h1a1,1,0,1,0,0-2.008H3.5c1.358-1.475,5.514-3.012,11.564-3.012H52.043l5.184,1.728v1.284h-1a1,1,0,1,0,0,2.008h1v3.012a1,1,0,0,0,1,1Z" transform="translate(0 -138.833)" fill="#361041"/>
        </g>
      </g>
    </g>
  </g>
</svg>
