<svg id="cart-icon-theme-6" xmlns="http://www.w3.org/2000/svg" width="32" height="31" viewBox="0 0 32 31">
  <ellipse id="Ellipse_45" data-name="Ellipse 45" cx="16" cy="15.5" rx="16" ry="15.5" fill="#ef0081"/>
  <g id="Icon_ionic-ios-cart" data-name="Icon ionic-ios-cart" transform="translate(9.646 8.989)">
    <path id="Path_292" data-name="Path 292" d="M11.113,28.9a.775.775,0,1,1-.775-.775A.775.775,0,0,1,11.113,28.9Z" transform="translate(-6.723 -17.268)" fill="#fff"/>
    <path id="Path_293" data-name="Path 293" d="M26.9,28.9a.775.775,0,1,1-.775-.775A.775.775,0,0,1,26.9,28.9Z" transform="translate(-15.256 -17.268)" fill="#fff"/>
    <path id="Path_294" data-name="Path 294" d="M16.811,6.7a.19.19,0,0,0-.168-.136L6.121,5.546a.324.324,0,0,1-.242-.152,3.289,3.289,0,0,0-.394-.6c-.249-.3-.717-.294-1.576-.3a.471.471,0,0,0-.527.455.462.462,0,0,0,.5.455,4.292,4.292,0,0,1,.84.061c.152.045.275.294.32.51a.012.012,0,0,0,0,.01c.006.039.065.329.065.333l1.292,6.835a2.512,2.512,0,0,0,.468,1.153,1.289,1.289,0,0,0,1.063.523H15.58a.459.459,0,0,0,.465-.433.45.45,0,0,0-.452-.472H7.93a.375.375,0,0,1-.268-.09A1.45,1.45,0,0,1,7.291,13l-.139-.766a.018.018,0,0,1,.013-.019l8.971-1.518a.189.189,0,0,0,.158-.168l.517-3.741A.184.184,0,0,0,16.811,6.7Z" transform="translate(-3.382 -4.493)" fill="#fff"/>
  </g>
</svg>
