<svg xmlns="http://www.w3.org/2000/svg" width="36" height="36" viewBox="0 0 36 36">
  <g id="cart-3" transform="translate(-197 -586)">
    <circle id="Ellipse_45" data-name="Ellipse 45" cx="18" cy="18" r="18" transform="translate(197 586)" fill="#acd8b2"/>
    <g id="Icon_ionic-ios-cart" data-name="Icon ionic-ios-cart" transform="translate(207.344 596.928)">
      <path id="Path_292" data-name="Path 292" d="M11.33,29.009a.884.884,0,1,1-.884-.884A.884.884,0,0,1,11.33,29.009Z" transform="translate(-6.326 -15.749)" fill="#fff"/>
      <path id="Path_293" data-name="Path 293" d="M27.115,29.009a.884.884,0,1,1-.884-.884A.884.884,0,0,1,27.115,29.009Z" transform="translate(-13.844 -15.749)" fill="#fff"/>
      <path id="Path_294" data-name="Path 294" d="M18.689,7.008a.216.216,0,0,0-.191-.155L6.5,5.693a.369.369,0,0,1-.276-.173,3.75,3.75,0,0,0-.449-.685c-.284-.346-.817-.335-1.8-.342a.536.536,0,0,0-.6.519.526.526,0,0,0,.574.519,4.893,4.893,0,0,1,.957.07c.173.052.313.335.365.582a.014.014,0,0,0,0,.011c.007.044.074.376.074.379l1.473,7.792a2.864,2.864,0,0,0,.534,1.315,1.47,1.47,0,0,0,1.211.6h8.712a.523.523,0,0,0,.53-.493.513.513,0,0,0-.516-.538H8.567a.428.428,0,0,1-.306-.1,1.652,1.652,0,0,1-.423-.957l-.158-.873a.02.02,0,0,1,.015-.022L17.92,11.559a.215.215,0,0,0,.18-.191L18.689,7.1A.21.21,0,0,0,18.689,7.008Z" transform="translate(-3.382 -4.493)" fill="#fff"/>
    </g>
  </g>
</svg>
