<svg xmlns="http://www.w3.org/2000/svg" width="41" height="41" viewBox="0 0 41 41">
  <g id="delete-icon-product-card" transform="translate(-272.666 -100.665)">
    <path id="Rectangle_49" data-name="Rectangle 49" d="M10,0H41a0,0,0,0,1,0,0V31A10,10,0,0,1,31,41H0a0,0,0,0,1,0,0V10A10,10,0,0,1,10,0Z" transform="translate(272.665 100.665)" fill="#78adbc" opacity="0"/>
    <g id="Icon_ionic-ios-cart" data-name="Icon ionic-ios-cart" transform="translate(284.118 113.34)">
      <path id="Path_277" data-name="Path 277" d="M11.643,29.165a1.04,1.04,0,1,1-1.04-1.04A1.04,1.04,0,0,1,11.643,29.165Z" transform="translate(-5.752 -13.556)" fill="#474141"/>
      <path id="Path_278" data-name="Path 278" d="M27.428,29.165a1.04,1.04,0,1,1-1.04-1.04A1.04,1.04,0,0,1,27.428,29.165Z" transform="translate(-11.806 -13.556)" fill="#474141"/>
      <path id="Path_279" data-name="Path 279" d="M21.4,7.453a.255.255,0,0,0-.225-.182L7.058,5.906a.435.435,0,0,1-.325-.2A4.414,4.414,0,0,0,6.2,4.9c-.334-.407-.962-.394-2.115-.4a.631.631,0,0,0-.707.611.62.62,0,0,0,.676.611A5.759,5.759,0,0,1,5.185,5.8c.2.061.368.394.429.685a.016.016,0,0,0,0,.013c.009.052.087.442.087.446l1.734,9.172a3.371,3.371,0,0,0,.629,1.547,1.73,1.73,0,0,0,1.426.7H19.749a.616.616,0,0,0,.624-.581.6.6,0,0,0-.607-.633H9.485a.5.5,0,0,1-.36-.121,1.945,1.945,0,0,1-.5-1.127L8.44,14.874a.024.024,0,0,1,.017-.026l12.037-2.037a.253.253,0,0,0,.212-.225L21.4,7.566A.247.247,0,0,0,21.4,7.453Z" transform="translate(-3.382 -4.493)" fill="#474141"/>
    </g>
  </g>
</svg>
