<svg xmlns="http://www.w3.org/2000/svg" width="57.93" height="44" viewBox="0 0 57.93 44">
  <g id="delievery-icon" transform="translate(-67 -309)">
    <circle id="Ellipse_5" data-name="Ellipse 5" cx="22" cy="22" r="22" transform="translate(67 309)" fill="#f8dcdb"/>
    <g id="delivery" transform="translate(87.051 314)">
      <g id="Group_116" data-name="Group 116">
        <g id="Group_115" data-name="Group 115">
          <path id="Path_251" data-name="Path 251" d="M33.551,53.786a25.521,25.521,0,0,0-.015-6.1.556.556,0,1,0-1.1.152,24.667,24.667,0,0,1,.028,5.669,6.485,6.485,0,0,0-3.538.4,18.725,18.725,0,0,0,.923-5.285A13.72,13.72,0,0,0,28.5,42.075h.465l.4.079a5.489,5.489,0,0,1,2.485,3.179.556.556,0,0,0,1.047-.375A7.951,7.951,0,0,0,31.608,42.6l.269.054a.562.562,0,0,0,.665-.545V38.554a.561.561,0,0,0-.665-.545l-2.3.46v-2.88a.556.556,0,0,0-.349-.516l-2.649-1.059a2.335,2.335,0,1,0-.1,1.159l1.984.794v2.626H23.091a.556.556,0,1,0,0,1.112h3.6v1.816a.556.556,0,0,0,.55.556c2.545,4.367,1.349,9.944.215,12.594a.558.558,0,0,0-.035.113q-.252.2-.483.416l-.043,0H21.863a10.5,10.5,0,0,0,.551-4.741,5.24,5.24,0,0,0-2.918-4V43.3a.556.556,0,0,0-.556-.556H12.417A3.525,3.525,0,0,0,8.9,46.263V46.3l-.037,0H8.822V42.668h.63a.556.556,0,0,0,.556-.556V39.147a.556.556,0,0,0-.556-.556H.557A.556.556,0,0,0,0,39.147v2.965a.556.556,0,0,0,.556.556h.63V46.3H.557a.556.556,0,1,0,0,1.112H6.809a12.433,12.433,0,0,0-1.219.7A12.281,12.281,0,0,0,.005,59.306c0,.131.006.263,0,.394a.979.979,0,0,0,.013.3.561.561,0,0,0,.535.406H1.8a5.3,5.3,0,0,0,10.551,0H18.94a.555.555,0,0,0,.391-.161,9.463,9.463,0,0,0,1-1.562h4.688a6.5,6.5,0,0,0-.116,1.223.556.556,0,0,0,.556.556h.659a5.3,5.3,0,0,0,10.541,0h.659a.556.556,0,0,0,.556-.556A6.5,6.5,0,0,0,33.551,53.786ZM29.577,39.6l1.853-.371v2.2l-1.7-.341c-.05-.024-.1-.049-.15-.072Zm-5.3-3.977A1.223,1.223,0,1,1,25.5,34.4,1.224,1.224,0,0,1,24.277,35.626Zm4.188,5.337H27.8V39.7h.667Zm-18.457,5.3a2.412,2.412,0,0,1,2.409-2.409h5.967V46.3H10.008ZM1.113,41.556V39.7H8.9v1.853ZM2.3,46.3V42.668H7.71V46.3ZM7.08,64.09A4.193,4.193,0,0,1,2.923,60.4H4.2a2.927,2.927,0,0,0,5.769,0h1.273A4.193,4.193,0,0,1,7.08,64.09ZM5.334,60.4H8.825a1.816,1.816,0,0,1-3.491,0Zm14.98-4.227a18.741,18.741,0,0,1-1.648,3.115H1.117s0,0,0,0A11.1,11.1,0,0,1,6.2,49.044a12.554,12.554,0,0,1,3.253-1.488.553.553,0,0,0,.236-.144H18.93a4.129,4.129,0,0,1,2.36,3.068A10.74,10.74,0,0,1,20.314,56.175Zm5.028,1.392H20.907c.125-.26.248-.532.368-.81.062-.144.124-.295.186-.45H26A6.474,6.474,0,0,0,25.342,57.567Zm6.051,6.523a4.192,4.192,0,0,1-4.184-4.049,5,5,0,0,1,1.972-2.053,2.927,2.927,0,1,0,4.561.166,5.955,5.955,0,0,1,1.837,1.876A4.192,4.192,0,0,1,31.393,64.09ZM29.577,59.9a1.816,1.816,0,1,1,1.816,1.816A1.818,1.818,0,0,1,29.577,59.9Zm6.883-.556a6.016,6.016,0,0,0-5.066-2.965,5.5,5.5,0,0,0-5.068,2.965h-.278a5.374,5.374,0,0,1,10.691,0Z" transform="translate(0 -32.068)"/>
        </g>
      </g>
      <g id="Group_118" data-name="Group 118" transform="translate(12.454 17.79)">
        <g id="Group_117" data-name="Group 117">
          <path id="Path_252" data-name="Path 252" d="M174.23,272.532h-5.337a.556.556,0,0,0,0,1.112h5.337a.556.556,0,1,0,0-1.112Z" transform="translate(-168.337 -272.532)"/>
        </g>
      </g>
      <g id="Group_120" data-name="Group 120" transform="translate(8.896 21.348)">
        <g id="Group_119" data-name="Group 119" transform="translate(0 0)">
          <path id="Path_253" data-name="Path 253" d="M128.508,320.625H120.8a.556.556,0,1,0,0,1.112h7.709a.556.556,0,1,0,0-1.112Z" transform="translate(-120.243 -320.625)"/>
        </g>
      </g>
      <g id="Group_122" data-name="Group 122" transform="translate(5.338 24.906)">
        <g id="Group_121" data-name="Group 121">
          <path id="Path_254" data-name="Path 254" d="M82.2,368.718H72.708a.556.556,0,0,0,0,1.112H82.2a.556.556,0,1,0,0-1.112Z" transform="translate(-72.152 -368.718)"/>
        </g>
      </g>
    </g>
  </g>
</svg>
