<svg xmlns="http://www.w3.org/2000/svg" width="25.015" height="26.682" viewBox="0 0 25.015 26.682">
  <g id="fashion-icon" transform="translate(0 0)">
    <path id="Path_322" data-name="Path 322" d="M12.9,467H1.173a1.173,1.173,0,1,0,0,2.345H12.9a1.173,1.173,0,1,0,0-2.345Zm0,0" transform="translate(0 -442.663)" fill="#26285d"/>
    <path id="Path_323" data-name="Path 323" d="M106.74,7.869h-4.232v.74l-1.563-.521V6.154a3.127,3.127,0,1,0-3.909-3.028H98.6a1.563,1.563,0,1,1,1.563,1.563h-.782v3.4l-1.563.521v-.74H93.585L90,11.454v5.8h3.127v1.616h5.081a2.732,2.732,0,0,1,1.909,4.69,2.694,2.694,0,0,1,.553,3.127H107.2V17.25h3.127v-5.8Zm-6.577,4.69a2.345,2.345,0,0,1-2.341-2.3l2.341-.78,2.341.78A2.345,2.345,0,0,1,100.162,12.559Zm0,0" transform="translate(-85.31)" fill="#26285d"/>
    <path id="Path_324" data-name="Path 324" d="M12.9,392H1.173a1.173,1.173,0,0,0,0,2.345H12.9a1.173,1.173,0,0,0,0-2.345Zm0,0" transform="translate(0 -371.572)" fill="#26285d"/>
  </g>
</svg>
