<svg xmlns="http://www.w3.org/2000/svg" width="25.769" height="20.038" viewBox="0 0 25.769 20.038">
  <path id="Icon_awesome-home-2" data-name="Icon awesome-home-2" d="M12.542,7.452,4.294,14.245v7.331a.716.716,0,0,0,.716.716l5.013-.013a.716.716,0,0,0,.712-.716V17.282a.716.716,0,0,1,.716-.716h2.863a.716.716,0,0,1,.716.716V21.56a.716.716,0,0,0,.716.718l5.011.014a.716.716,0,0,0,.716-.716V14.24L13.226,7.452A.545.545,0,0,0,12.542,7.452Zm13.028,4.617L21.83,8.986V2.79a.537.537,0,0,0-.537-.537H18.788a.537.537,0,0,0-.537.537V6.038l-4.005-3.3a2.147,2.147,0,0,0-2.729,0L.194,12.069a.537.537,0,0,0-.072.756l1.141,1.387a.537.537,0,0,0,.756.073L12.542,5.618a.545.545,0,0,1,.684,0l10.523,8.667a.537.537,0,0,0,.756-.072l1.141-1.387a.537.537,0,0,0-.076-.757Z" transform="translate(0.001 -2.254)" fill="#26285d"/>
</svg>
