<svg xmlns="http://www.w3.org/2000/svg" width="44" height="44" viewBox="0 0 44 44">
  <g id="icon-call" transform="translate(-30 -441)">
    <rect id="Rectangle_91" data-name="Rectangle 91" width="44" height="44" rx="5" transform="translate(30 441)" fill="#474141"/>
    <g id="Group_1037" data-name="Group 1037" transform="translate(43.491 454.329)">
      <g id="call">
        <g id="Group_153" data-name="Group 153">
          <path id="Path_260" data-name="Path 260" d="M16.379,12.044a10.968,10.968,0,0,1-3.44-.549.967.967,0,0,0-.978.236l-2.12,2.124A14.51,14.51,0,0,1,3.493,7.51l2.12-2.129A.967.967,0,0,0,5.848,4.4,10.968,10.968,0,0,1,5.3.964.96.96,0,0,0,4.336,0H.963A.963.963,0,0,0,0,.963,16.378,16.378,0,0,0,16.379,17.343a.96.96,0,0,0,.963-.963V13.007A.96.96,0,0,0,16.379,12.044Z" fill="#fff"/>
        </g>
      </g>
    </g>
  </g>
</svg>
