<svg xmlns="http://www.w3.org/2000/svg" width="21.695" height="20.038" viewBox="0 0 21.695 20.038">
  <g id="Icon_awesome-carrt-2" data-name="Icon awesome-carrt-2" transform="translate(-3.382 -4.493)">
    <path id="Path_317" data-name="Path 317" d="M12.067,29.377a1.252,1.252,0,1,1-1.252-1.252,1.252,1.252,0,0,1,1.252,1.252Z" transform="translate(-1.595 -6.098)" fill="#b1b1b1"/>
    <path id="Path_318" data-name="Path 318" d="M27.852,29.377A1.252,1.252,0,1,1,26.6,28.125a1.252,1.252,0,0,1,1.252,1.252Z" transform="translate(-5.668 -6.098)" fill="#b1b1b1"/>
    <path id="Path_319" data-name="Path 319" d="M25.069,8.056a.307.307,0,0,0-.271-.219L7.806,6.194a.523.523,0,0,1-.391-.245,5.312,5.312,0,0,0-.636-.97c-.4-.49-1.158-.475-2.546-.485a.76.76,0,0,0-.85.736.746.746,0,0,0,.814.736,6.932,6.932,0,0,1,1.356.1c.245.073.443.475.516.824a.019.019,0,0,0,.005.016c.01.063.1.532.1.537L8.265,18.48a4.057,4.057,0,0,0,.756,1.862,2.082,2.082,0,0,0,1.716.845H23.081a.742.742,0,0,0,.751-.7.727.727,0,0,0-.73-.762H10.727a.606.606,0,0,1-.433-.146,2.341,2.341,0,0,1-.6-1.356L9.47,16.988a.029.029,0,0,1,.021-.031L23.979,14.5a.3.3,0,0,0,.256-.271l.835-6.041A.3.3,0,0,0,25.069,8.056Z" fill="#b1b1b1"/>
  </g>
</svg>
