<svg xmlns="http://www.w3.org/2000/svg" width="22.493" height="21.539" viewBox="0 0 22.493 21.539">
  <g id="Icon_feather-shopping-cart" data-name="Icon feather-shopping-cart" transform="translate(-0.75 -0.75)" opacity="0.3">
    <path id="Path_337" data-name="Path 337" d="M13.908,30.954A.954.954,0,1,1,12.954,30,.954.954,0,0,1,13.908,30.954Z" transform="translate(-3.82 -10.37)" fill="none" stroke="#fcfcfc" stroke-linecap="round" stroke-linejoin="round" stroke-width="1.5"/>
    <path id="Path_338" data-name="Path 338" d="M30.408,30.954A.954.954,0,1,1,29.454,30,.954.954,0,0,1,30.408,30.954Z" transform="translate(-9.824 -10.37)" fill="none" stroke="#fcfcfc" stroke-linecap="round" stroke-linejoin="round" stroke-width="1.5"/>
    <path id="Path_339" data-name="Path 339" d="M1.5,1.5H5.317L7.874,14.277a1.908,1.908,0,0,0,1.908,1.536h9.275a1.908,1.908,0,0,0,1.908-1.536l1.527-8.006H6.271" fill="none" stroke="#fcfcfc" stroke-linecap="round" stroke-linejoin="round" stroke-width="1.5"/>
  </g>
</svg>
