<svg xmlns="http://www.w3.org/2000/svg" width="19.72" height="21.04" viewBox="0 0 19.72 21.04">
  <g id="makeup-icon" transform="translate(-16.066)">
    <path id="Path_330" data-name="Path 330" d="M220.579,3.358a6.715,6.715,0,0,0-11.631,0,.617.617,0,0,0,.023.655l2.651,3.913.046,0h1.91l-.39-1.169a.616.616,0,0,1,1.17-.39l.406,1.217.406-1.217a.616.616,0,1,1,1.17.39l-.39,1.169h1.91l.046,0,2.651-3.913a.616.616,0,0,0,.023-.655Z" transform="translate(-184.876)" fill="#26285d"/>
    <path id="Path_331" data-name="Path 331" d="M289.2,233.408a1.278,1.278,0,0,0,1.277,1.277h2.641a1.278,1.278,0,0,0,1.277-1.277V222.8H289.2Z" transform="translate(-261.909 -213.644)" fill="#26285d"/>
    <path id="Path_332" data-name="Path 332" d="M32.133,190.667h5.855v6.03H32.133Z" transform="translate(-15.407 -182.832)" fill="#26285d"/>
    <path id="Path_333" data-name="Path 333" d="M16.066,372.066a1.278,1.278,0,0,0,1.277,1.277h4.622a1.278,1.278,0,0,0,1.277-1.277V367.4H16.066Z" transform="translate(0 -352.302)" fill="#26285d"/>
    <path id="Path_334" data-name="Path 334" d="M52.733,5.974A1.025,1.025,0,0,0,51.716,4.9a1.183,1.183,0,0,0-.441.088l-2.075.83a1.67,1.67,0,0,0-1,1.478V11.3h4.534Z" transform="translate(-30.813 -4.698)" fill="#26285d"/>
  </g>
</svg>
