<svg id="menu-icon" xmlns="http://www.w3.org/2000/svg" width="24.951" height="24.951" viewBox="0 0 24.951 24.951">
  <g id="Group_66" data-name="Group 66">
    <g id="Group_65" data-name="Group 65">
      <path id="Path_19" data-name="Path 19" d="M12.476,0A12.476,12.476,0,1,0,24.951,12.476,12.476,12.476,0,0,0,12.476,0Zm0,24.12A11.644,11.644,0,1,1,24.12,12.476,11.644,11.644,0,0,1,12.476,24.12Z"/>
    </g>
  </g>
  <g id="Group_68" data-name="Group 68" transform="translate(1.663 12.06)">
    <g id="Group_67" data-name="Group 67">
      <path id="Path_20" data-name="Path 20" d="M42.812,242.4a9.992,9.992,0,0,1-9.981-9.981.416.416,0,1,0-.832,0,10.824,10.824,0,0,0,10.812,10.812.416.416,0,0,0,0-.832Z" transform="translate(-32 -232)"/>
    </g>
  </g>
  <g id="Group_70" data-name="Group 70" transform="translate(12.06 1.663)">
    <g id="Group_69" data-name="Group 69">
      <path id="Path_21" data-name="Path 21" d="M232.416,32a.416.416,0,1,0,0,.832,9.992,9.992,0,0,1,9.981,9.981.416.416,0,0,0,.832,0A10.825,10.825,0,0,0,232.416,32Z" transform="translate(-232 -32)"/>
    </g>
  </g>
  <g id="Group_72" data-name="Group 72" transform="translate(7.485 4.159)">
    <g id="Group_71" data-name="Group 71">
      <path id="Path_22" data-name="Path 22" d="M147.743,80a.416.416,0,0,0-.416.416V82.5H146.5V80.416a.416.416,0,1,0-.832,0V82.5h-.832V80.416a.416.416,0,1,0-.832,0v3.327a1.248,1.248,0,0,0,1.248,1.248h.383l-.8,10.4a1.248,1.248,0,0,0,2.5-.032l-.8-10.364h.383a1.248,1.248,0,0,0,1.248-1.248V80.416A.416.416,0,0,0,147.743,80Zm-1.663,15.8a.413.413,0,0,1-.416-.384l.416-5.426.416,5.394A.416.416,0,0,1,146.079,95.8Zm1.248-12.06a.416.416,0,0,1-.416.416h-1.663a.416.416,0,0,1-.416-.416v-.416h2.5Z" transform="translate(-144 -80)"/>
    </g>
  </g>
  <g id="Group_74" data-name="Group 74" transform="translate(14.139 4.159)">
    <g id="Group_73" data-name="Group 73">
      <path id="Path_23" data-name="Path 23" d="M274.079,80A2.082,2.082,0,0,0,272,82.079V95.387a1.248,1.248,0,1,0,2.5,0V80.416A.416.416,0,0,0,274.079,80Zm-.416,15.387a.416.416,0,0,1-.832,0V89.981h.832Zm0-6.238h-.832v-7.07a1.25,1.25,0,0,1,.832-1.176Z" transform="translate(-272 -80)"/>
    </g>
  </g>
</svg>
