<svg id="opened" xmlns="http://www.w3.org/2000/svg" width="29.329" height="29.329" viewBox="0 0 29.329 29.329">
  <g id="Group_150" data-name="Group 150" transform="translate(6.964 3.685)">
    <g id="Group_149" data-name="Group 149">
      <path id="Path_258" data-name="Path 258" d="M143.094,64.652a1.105,1.105,0,0,0-1.563,0l-13.26,13.225-4.784-5.2a1.105,1.105,0,0,0-1.626,1.5l5.564,6.042a1.1,1.1,0,0,0,.79.356h.024a1.107,1.107,0,0,0,.78-.322l14.075-14.038A1.105,1.105,0,0,0,143.094,64.652Z" transform="translate(-121.568 -64.327)" fill="#ee675c"/>
    </g>
  </g>
  <g id="Group_152" data-name="Group 152">
    <g id="Group_151" data-name="Group 151">
      <path id="Path_259" data-name="Path 259" d="M28.223,13.559a1.105,1.105,0,0,0-1.105,1.105A12.454,12.454,0,1,1,14.664,2.211a1.105,1.105,0,1,0,0-2.211A14.664,14.664,0,1,0,29.329,14.664,1.105,1.105,0,0,0,28.223,13.559Z" fill="#ee675c"/>
    </g>
  </g>
</svg>
