<svg xmlns="http://www.w3.org/2000/svg" width="23.34" height="23.34" viewBox="0 0 23.34 23.34">
  <g id="order-status-icon" transform="translate(-6 -6)">
    <g id="linear_color" data-name="linear color" transform="translate(6 6)">
      <path id="Path_26" data-name="Path 26" d="M28.127,6H7.214A1.215,1.215,0,0,0,6,7.214V23.645a1.215,1.215,0,0,0,1.214,1.214h8.247L15.143,27.4a11.133,11.133,0,0,0-2.213,1.085.467.467,0,0,0,.259.855h8.963a.467.467,0,0,0,.259-.855A11.133,11.133,0,0,0,20.2,27.4l-.318-2.541h8.247a1.215,1.215,0,0,0,1.214-1.214V7.214A1.215,1.215,0,0,0,28.127,6ZM7.214,6.934H28.127a.28.28,0,0,1,.28.28V20.191H6.934V7.214A.28.28,0,0,1,7.214,6.934ZM15.43,28.407h-.3a7.027,7.027,0,0,1,2.545-.56,7.028,7.028,0,0,1,2.542.56Zm3.79-1.3a6.28,6.28,0,0,0-3.1,0l.281-2.248h2.537Zm9.187-3.462a.28.28,0,0,1-.28.28H7.214a.28.28,0,0,1-.28-.28V21.125H28.407Z" transform="translate(-6 -6)"/>
      <path id="Path_27" data-name="Path 27" d="M230.467,350.934h1.494a.467.467,0,1,0,0-.934h-1.494a.467.467,0,0,0,0,.934Z" transform="translate(-219.544 -333.942)"/>
      <path id="Path_28" data-name="Path 28" d="M94.467,54.934h1.157l2.134,6.4a.465.465,0,0,0,.069.132h0a1.215,1.215,0,1,0,.646.187h3.9c-.009.092-.014.186-.014.28a2.941,2.941,0,1,0,2.941-2.941c-.093,0-.184,0-.275.013l.718-2.153a.467.467,0,0,0-.443-.614H99.322a.467.467,0,0,0,0,.934h5.327l-.436,1.309-.036,0h-4.108a.467.467,0,1,0,0,.934h3.715a2.96,2.96,0,0,0-1.165,1.307H98.538l-2.134-6.4A.467.467,0,0,0,95.961,54H94.467a.467.467,0,1,0,0,.934Zm3.361,8.029a.28.28,0,1,1,.28-.28A.28.28,0,0,1,97.828,62.963Zm9.476-1.027a2.007,2.007,0,1,1-2.007-2.007A2.007,2.007,0,0,1,107.3,61.936Z" transform="translate(-89.892 -51.759)"/>
      <path id="Path_29" data-name="Path 29" d="M310.264,199.627l.747.373a.467.467,0,0,0,.6-.159l.747-1.12a.467.467,0,1,0-.777-.518l-.518.777-.378-.189a.467.467,0,1,0-.418.835Z" transform="translate(-295.815 -189.033)"/>
    </g>
  </g>
</svg>
