<svg xmlns="http://www.w3.org/2000/svg" width="18.405" height="18.405" viewBox="0 0 18.405 18.405">
  <g id="order-icon" transform="translate(-0.001 0.001)" opacity="0.3">
    <g id="Group_1107" data-name="Group 1107" transform="translate(0.001 -0.001)">
      <g id="Group_1106" data-name="Group 1106" transform="translate(0)">
        <path id="Path_298" data-name="Path 298" d="M17.125,10.261a1.236,1.236,0,0,0-1.176.856,6.88,6.88,0,1,1-8.694-8.65,1.3,1.3,0,0,0,.889-1.229A1.238,1.238,0,0,0,6.526.059a9.4,9.4,0,1,0,11.8,11.866,1.269,1.269,0,0,0-1.206-1.664Z" transform="translate(-0.001 0.001)"/>
        <path id="Path_299" data-name="Path 299" d="M330.327,2.582A6.907,6.907,0,0,1,334.753,7a1.262,1.262,0,0,0,1.2.871h.026a1.235,1.235,0,0,0,1.176-1.614,9.426,9.426,0,0,0-6.05-6.064,1.248,1.248,0,0,0-1.633,1.187v.027A1.237,1.237,0,0,0,330.327,2.582Z" transform="translate(-318.809 -0.126)"/>
      </g>
    </g>
  </g>
</svg>
