<svg xmlns="http://www.w3.org/2000/svg" width="315" height="261.39" viewBox="0 0 315 261.39">
  <g id="order-confirmed-illustration" transform="translate(-32.799 -62.943)">
    <g id="freepik--Floor--inject-46" transform="translate(32.799 159.773)">
      <path id="Path_30" data-name="Path 30" d="M78.927,337.181c61.523,32.137,161.226,32.137,222.735,0s61.523-84.221,0-116.358-161.226-32.129-222.735,0S17.426,305.052,78.927,337.181Z" transform="translate(-32.799 -196.724)" fill="#f5f5f5"/>
    </g>
    <g id="freepik--Plants--inject-46" transform="translate(38.738 154.182)">
      <path id="Path_31" data-name="Path 31" d="M66.039,305.937H68.63a60.653,60.653,0,0,0,2.323-12.167c.565-7.636-3.134-19.325-9.909-23.241s-10.444.926-8.172,5.067,9.938,15.916,10.039,26.049Z" transform="translate(-44.097 -211.118)" fill="#faf7f0"/>
      <path id="Path_32" data-name="Path 32" d="M67.652,307.445h.724a53.837,53.837,0,0,0,0-15.077c-1.173-9.909-4.43-14.512-7.455-17.711a.364.364,0,1,0-.528.5c2.946,3.105,6.116,7.593,7.238,17.292a53.076,53.076,0,0,1,.022,15Z" transform="translate(-46.332 -212.626)" fill="#fff"/>
      <path id="Path_33" data-name="Path 33" d="M63.157,314.132c-1.332-6.283-7.383-13.752-13.094-15.041-6.623-1.448-9.844,2.048-8.9,5.067s6.181,4.422,11.262,6.789a16.648,16.648,0,0,1,4.625,3.185Z" transform="translate(-41.005 -219.313)" fill="#faf7f0"/>
      <path id="Path_34" data-name="Path 34" d="M62.937,315.218h.774c-2.8-7.043-9.171-12.066-14.382-12.529a.355.355,0,0,0-.391.326.347.347,0,0,0,.326.391C54.186,303.847,60.2,308.566,62.937,315.218Z" transform="translate(-43.196 -220.399)" fill="#fff"/>
      <path id="Path_35" data-name="Path 35" d="M392.989,217.6l5.421,2.845.456-3.395c-2.685-7.571-.478-16.155,2.425-19.731s2.345-6.2,1.3-7.376-5.03-2.063-8.968,2.541-4.842,10.191-4.184,15.829A25.484,25.484,0,0,0,392.989,217.6Z" transform="translate(-137.188 -188.998)" fill="#faf7f0"/>
      <path id="Path_36" data-name="Path 36" d="M392.989,217.6l5.421,2.845.456-3.395c-2.685-7.571-.478-16.155,2.425-19.731s2.345-6.2,1.3-7.376-5.03-2.063-8.968,2.541-4.842,10.191-4.184,15.829A25.484,25.484,0,0,0,392.989,217.6Z" transform="translate(-137.188 -188.998)" opacity="0.2"/>
      <path id="Path_37" data-name="Path 37" d="M396.565,219.246l1.071.565a.408.408,0,0,0-.036-.058c-1.534-1.824-3.518-10.756-2.685-15.989,1.028-6.464,4.343-10.683,7.18-12.471a.3.3,0,0,0,.094-.427.318.318,0,0,0-.434-.094c-2.9,1.86-6.4,6.225-7.462,12.9C393.525,208.541,395.059,216.256,396.565,219.246Z" transform="translate(-138.527 -189.475)" fill="#fff"/>
      <path id="Path_38" data-name="Path 38" d="M400.307,205.4c1.585,3.887,1.578,5.79-1.006,6.188-2.331.347-5.161,3.177-2.533,7.774l15.374,8.063a6.369,6.369,0,0,1,2.171-4.509c2.526-2.526,4.857-4.43,4.495-7.238s-2.8-5.515-3.206-7.962.84-3.843,3.5-6.587,5.067-7,1.52-8.939-7.607,1.382-9.3,3.619-3.243,3.221-6.579,3.033S398.722,201.509,400.307,205.4Z" transform="translate(-138.976 -189.718)" fill="#faf7f0"/>
      <path id="Path_39" data-name="Path 39" d="M407.832,224.487c-.072-11.928,8.476-25.9,13.231-28.72a.326.326,0,0,0,.109-.434.318.318,0,0,0-.427-.109c-4.821,2.9-13.441,16.872-13.535,28.952Z" transform="translate(-142.151 -190.707)" fill="#fff"/>
      <path id="Path_40" data-name="Path 40" d="M409.772,215.259a.3.3,0,0,1-.333-.159,52.23,52.23,0,0,1-3.474-8.034.311.311,0,0,1,.594-.188,52.173,52.173,0,0,0,3.431,7.926.318.318,0,0,1-.13.427Z" transform="translate(-141.803 -193.877)" fill="#fff"/>
      <path id="Path_41" data-name="Path 41" d="M408.247,227.3a.326.326,0,0,1-.318-.123.319.319,0,0,1,.08-.442,16.314,16.314,0,0,1,10.691-2.9.314.314,0,1,1-.08.622,15.967,15.967,0,0,0-10.249,2.758A.37.37,0,0,1,408.247,227.3Z" transform="translate(-142.334 -198.606)" fill="#fff"/>
    </g>
    <g id="freepik--Boxes--inject-46" transform="translate(49.172 94.737)">
      <path id="Path_42" data-name="Path 42" d="M269.431,124.084,251.792,113.9,234.16,124.084l17.632,10.184Z" transform="translate(-104.788 -108.812)" fill="#f5f5f5"/>
      <path id="Path_43" data-name="Path 43" d="M258.52,158.529l17.639-10.184V127.97L258.52,138.154Z" transform="translate(-111.516 -112.698)" fill="#ebebeb"/>
      <path id="Path_44" data-name="Path 44" d="M262.99,159.281a.543.543,0,0,1-.268-.065.818.818,0,0,1-.333-.724v-2.171h0v-.159h.109l1.694-.992v2.41a1.94,1.94,0,0,1-.832,1.578A.724.724,0,0,1,262.99,159.281Zm-.326-2.8v2a.557.557,0,0,0,.2.5.355.355,0,0,0,.362-.043,1.694,1.694,0,0,0,.724-1.339v-.174h-.63l-.123-.847Zm.869.666h.391v-1.484l-1.013.586.5.094Z" transform="translate(-112.584 -120.211)" fill="#fff"/>
      <path id="Path_45" data-name="Path 45" d="M263.587,162.434a.138.138,0,0,1-.138-.138v-1.81a.13.13,0,0,1,.138-.138.138.138,0,0,1,.137.138v1.781a.145.145,0,0,1-.138.166Z" transform="translate(-112.878 -121.641)" fill="#fff"/>
      <path id="Path_46" data-name="Path 46" d="M262.5,163.408a.13.13,0,0,1-.116-.072.123.123,0,0,1,.051-.181l1.571-.912a.138.138,0,0,1,.188.051.145.145,0,0,1-.051.188l-1.578.9Z" transform="translate(-112.577 -122.159)" fill="#fff"/>
      <path id="Path_47" data-name="Path 47" d="M270.191,158.236a.26.26,0,0,1-.152,0,.362.362,0,0,1-.159-.326v-.369a.134.134,0,1,1,.268,0v.391h.087a.775.775,0,0,0,.253-.608V154.95a.134.134,0,0,1,.268,0v2.417a1.049,1.049,0,0,1-.384.847A.484.484,0,0,1,270.191,158.236Z" transform="translate(-114.654 -120.114)" fill="#fff"/>
      <path id="Path_48" data-name="Path 48" d="M268.33,155.289v-.232a3.858,3.858,0,0,1,1.737-3.011,1.151,1.151,0,0,1,1.875,1.078v.08Zm2.548-3.214a1.317,1.317,0,0,0-.673.21,3.619,3.619,0,0,0-1.592,2.526l3.054-1.759a1,1,0,0,0-.42-.883.724.724,0,0,0-.369-.094Z" transform="translate(-114.226 -119.273)" fill="#fff"/>
      <path id="Path_49" data-name="Path 49" d="M276.948,153.836a.138.138,0,0,1-.138-.13v-4.618a.138.138,0,1,1,.275,0v4.618A.138.138,0,0,1,276.948,153.836Z" transform="translate(-116.568 -118.493)" fill="#fff"/>
      <path id="Path_50" data-name="Path 50" d="M276.439,150.1h-.051a.138.138,0,0,1-.072-.181l.485-1.115.536.622a.133.133,0,1,1-.2.174l-.261-.29-.311.724a.13.13,0,0,1-.123.065Z" transform="translate(-116.428 -118.451)" fill="#fff"/>
      <path id="Path_51" data-name="Path 51" d="M278.719,152.841a.137.137,0,0,1-.13-.137v-4.618a.138.138,0,1,1,.268,0V152.7A.138.138,0,0,1,278.719,152.841Z" transform="translate(-117.058 -118.207)" fill="#fff"/>
      <path id="Path_52" data-name="Path 52" d="M278.169,149.106h-.051a.138.138,0,0,1-.072-.181l.485-1.115.536.622a.137.137,0,0,1,0,.188.145.145,0,0,1-.2,0l-.253-.3-.311.724A.138.138,0,0,1,278.169,149.106Z" transform="translate(-116.906 -118.178)" fill="#fff"/>
      <path id="Path_53" data-name="Path 53" d="M251.789,158.529,234.15,148.345l.007-20.375,17.632,10.184Z" transform="translate(-104.785 -112.698)" fill="#e0e0e0"/>
      <path id="Path_54" data-name="Path 54" d="M246.9,131.442l17.625-10.191-1.99-1.151L244.9,130.291Z" transform="translate(-107.755 -110.524)" fill="#fff"/>
      <path id="Path_55" data-name="Path 55" d="M237.372,144.045l6.319,3.619a2.794,2.794,0,0,1,1.252,2.171v3.894c0,.8-.565,1.129-1.252.724l-6.319-3.619a2.787,2.787,0,0,1-1.252-2.171v-3.894C236.12,143.965,236.685,143.647,237.372,144.045Z" transform="translate(-105.33 -117.09)" fill="#faf7f0"/>
      <path id="Path_56" data-name="Path 56" d="M237.18,145.45l.239.145v4.321l-.239-.138Z" transform="translate(-105.622 -117.526)" fill="#faf7f0"/>
      <path id="Path_57" data-name="Path 57" d="M238.53,146.23l.413.246V150.8l-.413-.239Z" transform="translate(-105.995 -117.741)" fill="#faf7f0"/>
      <path id="Path_58" data-name="Path 58" d="M239.88,147.01l.239.138v4.328l-.239-.138Z" transform="translate(-106.368 -117.957)" fill="#faf7f0"/>
      <path id="Path_59" data-name="Path 59" d="M240.89,147.59l.485.282V152.2l-.485-.29Z" transform="translate(-106.647 -118.117)" fill="#faf7f0"/>
      <path id="Path_60" data-name="Path 60" d="M242.57,148.57l.246.137v4.328l-.246-.145Z" transform="translate(-107.111 -118.388)" fill="#faf7f0"/>
      <path id="Path_61" data-name="Path 61" d="M243.547,149.12l.507.3v4.321l-.514-.3Z" transform="translate(-107.379 -118.539)" fill="#faf7f0"/>
      <path id="Path_62" data-name="Path 62" d="M245.27,150.13l.239.138v4.321l-.239-.138Z" transform="translate(-107.857 -118.818)" fill="#faf7f0"/>
      <path id="Path_63" data-name="Path 63" d="M246.04,150.56l.123.072v4.321l-.123-.065Z" transform="translate(-108.069 -118.937)" fill="#faf7f0"/>
      <path id="Path_64" data-name="Path 64" d="M244.66,149.8l.116.072v4.321l-.116-.065Z" transform="translate(-107.688 -118.727)" fill="#faf7f0"/>
      <path id="Path_65" data-name="Path 65" d="M241.94,148.21l.116.065V152.6l-.116-.072Z" transform="translate(-106.937 -118.288)" fill="#faf7f0"/>
      <path id="Path_66" data-name="Path 66" d="M240.45,147.35l.123.072v4.328l-.123-.072Z" transform="translate(-106.525 -118.051)" fill="#faf7f0"/>
      <path id="Path_67" data-name="Path 67" d="M239.38,146.76l.123.072v4.328l-.123-.072Z" transform="translate(-106.23 -117.888)" fill="#faf7f0"/>
      <path id="Path_68" data-name="Path 68" d="M237.93,145.88l.123.072v4.328l-.123-.072Z" transform="translate(-105.829 -117.645)" fill="#faf7f0"/>
      <path id="Path_69" data-name="Path 69" d="M246.62,150.9l.239.138v4.328l-.239-.138Z" transform="translate(-108.23 -119.031)" fill="#faf7f0"/>
      <path id="Path_70" data-name="Path 70" d="M234.692,118.748,214.108,106.87,193.53,118.748l20.578,11.885Z" transform="translate(-93.566 -106.87)" fill="#f5f5f5"/>
      <path id="Path_71" data-name="Path 71" d="M209.01,127.688,229.6,115.811l-2-1.151L207.02,126.538Z" transform="translate(-97.292 -109.022)" fill="#fff"/>
      <path id="Path_72" data-name="Path 72" d="M221.96,172.506l20.585-11.878V123.28L221.96,135.165Z" transform="translate(-101.419 -111.402)" fill="#ebebeb"/>
      <path id="Path_73" data-name="Path 73" d="M226.429,180.428a.5.5,0,0,1-.268-.072.8.8,0,0,1-.333-.724v-2.171h0V177.3h.116l1.686-.992v2.41a1.954,1.954,0,0,1-.832,1.578A.724.724,0,0,1,226.429,180.428Zm-.326-2.8v2a.557.557,0,0,0,.2.5.355.355,0,0,0,.362-.043,1.694,1.694,0,0,0,.724-1.339v-.174h-.63l-.123-.847Zm.869.666h.427v-1.484l-1.013.594.5.087Z" transform="translate(-102.486 -126.049)" fill="#fff"/>
      <path id="Path_74" data-name="Path 74" d="M227.027,183.544a.138.138,0,0,1-.138-.138V181.59a.13.13,0,0,1,.138-.13.137.137,0,0,1,.138.13v1.817a.145.145,0,0,1-.138.138Z" transform="translate(-102.78 -127.472)" fill="#fff"/>
      <path id="Path_75" data-name="Path 75" d="M225.95,184.551a.13.13,0,0,1-.116-.065.145.145,0,0,1,.051-.188l1.571-.9a.137.137,0,0,1,.188.051.13.13,0,0,1-.051.181l-1.578.912a.109.109,0,0,1-.065.014Z" transform="translate(-102.484 -128.001)" fill="#fff"/>
      <path id="Path_76" data-name="Path 76" d="M233.631,179.338a.333.333,0,0,1-.152-.036.362.362,0,0,1-.159-.326V178.6a.134.134,0,0,1,.268,0v.463c0,.007.043,0,.087,0a.789.789,0,0,0,.253-.615v-2.41a.138.138,0,0,1,.138-.138.145.145,0,0,1,.138.138v2.41a1.021,1.021,0,0,1-.391.847.413.413,0,0,1-.181.043Z" transform="translate(-104.556 -125.936)" fill="#fff"/>
      <path id="Path_77" data-name="Path 77" d="M231.77,176.4v-.239a3.851,3.851,0,0,1,1.737-3,1.151,1.151,0,0,1,1.875,1.078v.08Zm2.548-3.221a1.39,1.39,0,0,0-.673.21,3.619,3.619,0,0,0-1.592,2.533l3.054-1.759a1.021,1.021,0,0,0-.42-.89.775.775,0,0,0-.369-.094Z" transform="translate(-104.128 -125.104)" fill="#fff"/>
      <path id="Path_78" data-name="Path 78" d="M240.428,174.943a.138.138,0,0,1-.138-.138v-4.618a.138.138,0,1,1,.275,0v4.618A.138.138,0,0,1,240.428,174.943Z" transform="translate(-106.481 -124.32)" fill="#fff"/>
      <path id="Path_79" data-name="Path 79" d="M239.879,171.208h-.051a.13.13,0,0,1-.072-.174l.485-1.115.536.622a.133.133,0,0,1-.2.174l-.261-.3-.311.724A.13.13,0,0,1,239.879,171.208Z" transform="translate(-106.331 -124.284)" fill="#fff"/>
      <path id="Path_80" data-name="Path 80" d="M242.16,173.956a.13.13,0,0,1-.13-.13v-4.618a.134.134,0,1,1,.268,0v4.618a.13.13,0,0,1-.138.13Z" transform="translate(-106.962 -124.05)" fill="#fff"/>
      <path id="Path_81" data-name="Path 81" d="M241.617,170.216h-.058a.145.145,0,0,1-.072-.181l.485-1.115.543.622a.145.145,0,0,1,0,.188.138.138,0,0,1-.2,0l-.253-.3-.311.724a.13.13,0,0,1-.137.058Z" transform="translate(-106.809 -124.008)" fill="#fff"/>
      <path id="Path_82" data-name="Path 82" d="M214.108,172.506,193.53,160.628V123.28l20.578,11.885Z" transform="translate(-93.566 -111.402)" fill="#e0e0e0"/>
      <path id="Path_83" data-name="Path 83" d="M198.832,164.083l6.312,3.619a2.787,2.787,0,0,1,1.259,2.171v3.9c0,.8-.565,1.122-1.259.724l-6.312-3.619a2.765,2.765,0,0,1-1.252-2.171v-3.894C197.58,163.974,198.145,163.685,198.832,164.083Z" transform="translate(-94.685 -122.624)" fill="#f5f5f5"/>
      <path id="Path_84" data-name="Path 84" d="M198.64,165.49l.239.145v4.321l-.239-.138Z" transform="translate(-94.978 -123.061)" fill="#e0e0e0"/>
      <path id="Path_85" data-name="Path 85" d="M199.99,166.27l.413.246v4.328l-.413-.246Z" transform="translate(-95.35 -123.276)" fill="#e0e0e0"/>
      <path id="Path_86" data-name="Path 86" d="M201.33,167.05l.246.138-.007,4.328-.239-.138Z" transform="translate(-95.72 -123.492)" fill="#e0e0e0"/>
      <path id="Path_87" data-name="Path 87" d="M202.35,167.63l.478.282v4.328l-.478-.29Z" transform="translate(-96.002 -123.652)" fill="#e0e0e0"/>
      <path id="Path_88" data-name="Path 88" d="M204.03,168.61l.239.138v4.328l-.239-.145Z" transform="translate(-96.466 -123.923)" fill="#e0e0e0"/>
      <path id="Path_89" data-name="Path 89" d="M205,169.16l.514.3v4.321l-.514-.3Z" transform="translate(-96.734 -124.075)" fill="#e0e0e0"/>
      <path id="Path_90" data-name="Path 90" d="M206.73,170.16l.239.145v4.321l-.239-.138Z" transform="translate(-97.212 -124.351)" fill="#e0e0e0"/>
      <path id="Path_91" data-name="Path 91" d="M207.5,170.6l.123.072V175l-.123-.072Z" transform="translate(-97.425 -124.472)" fill="#e0e0e0"/>
      <path id="Path_92" data-name="Path 92" d="M206.12,169.84l.116.072v4.321l-.116-.065Z" transform="translate(-97.043 -124.262)" fill="#e0e0e0"/>
      <path id="Path_93" data-name="Path 93" d="M203.4,168.25l.116.065v4.328l-.116-.072Z" transform="translate(-96.292 -123.823)" fill="#e0e0e0"/>
      <path id="Path_94" data-name="Path 94" d="M201.91,167.39l.116.072v4.328l-.116-.072Z" transform="translate(-95.881 -123.586)" fill="#e0e0e0"/>
      <path id="Path_95" data-name="Path 95" d="M200.84,166.8l.123.072V171.2l-.123-.072Z" transform="translate(-95.585 -123.423)" fill="#e0e0e0"/>
      <path id="Path_96" data-name="Path 96" d="M199.39,165.92l.123.072v4.328l-.123-.072Z" transform="translate(-95.185 -123.18)" fill="#e0e0e0"/>
      <path id="Path_97" data-name="Path 97" d="M208.08,170.94l.239.138v4.328l-.239-.138Z" transform="translate(-97.585 -124.566)" fill="#e0e0e0"/>
      <path id="Path_98" data-name="Path 98" d="M207.02,135.89l1.99,1.151v-4.821l-1.99-1.151Z" transform="translate(-97.292 -113.554)" fill="#f0f0f0"/>
      <path id="Path_99" data-name="Path 99" d="M151.628,173.983l-14.7-8.483L116.35,177.378l14.7,8.49Z" transform="translate(-72.249 -123.064)" fill="#f5f5f5"/>
      <path id="Path_100" data-name="Path 100" d="M136.66,223.051l20.578-11.878V177.22L136.66,189.1Z" transform="translate(-77.859 -126.301)" fill="#ebebeb"/>
      <path id="Path_101" data-name="Path 101" d="M141.122,229.638a.471.471,0,0,1-.261-.072.8.8,0,0,1-.333-.724v-2.171h0v-.159h.109l1.694-.992v2.41a1.954,1.954,0,0,1-.832,1.578.767.767,0,0,1-.376.13Zm-.318-2.8v2a.543.543,0,0,0,.2.5.384.384,0,0,0,.362-.043,1.694,1.694,0,0,0,.724-1.339v-.174h-.63l-.123-.847Zm.869.666h.391v-1.491l-1.013.594.5.087Z" transform="translate(-78.926 -139.641)" fill="#fff"/>
      <path id="Path_102" data-name="Path 102" d="M141.728,232.794a.138.138,0,0,1-.138-.138V230.84a.134.134,0,0,1,.268,0v1.817A.138.138,0,0,1,141.728,232.794Z" transform="translate(-79.22 -141.075)" fill="#fff"/>
      <path id="Path_103" data-name="Path 103" d="M140.637,233.761a.123.123,0,0,1-.116-.065.13.13,0,0,1,.043-.188l1.578-.9a.137.137,0,0,1,.188.051.13.13,0,0,1-.051.181l-1.578.912A.108.108,0,0,1,140.637,233.761Z" transform="translate(-78.919 -141.592)" fill="#fff"/>
      <path id="Path_104" data-name="Path 104" d="M148.331,228.576a.333.333,0,0,1-.152-.036.362.362,0,0,1-.159-.326v-.376a.134.134,0,0,1,.268,0v.463c0,.007.043,0,.087,0a.818.818,0,0,0,.253-.615v-2.41a.138.138,0,1,1,.268,0v2.41a1.042,1.042,0,0,1-.384.847.413.413,0,0,1-.181.043Z" transform="translate(-80.996 -139.527)" fill="#fff"/>
      <path id="Path_105" data-name="Path 105" d="M146.47,225.658v-.239a3.851,3.851,0,0,1,1.737-3,1.144,1.144,0,0,1,1.867,1.078v.08Zm2.548-3.221a1.39,1.39,0,0,0-.673.21,3.619,3.619,0,0,0-1.592,2.533l3.054-1.766a1.013,1.013,0,0,0-.42-.883.774.774,0,0,0-.362-.1Z" transform="translate(-80.568 -138.708)" fill="#fff"/>
      <path id="Path_106" data-name="Path 106" d="M155.128,224.193a.138.138,0,0,1-.138-.138v-4.618a.138.138,0,1,1,.275,0v4.618A.138.138,0,0,1,155.128,224.193Z" transform="translate(-82.921 -137.923)" fill="#fff"/>
      <path id="Path_107" data-name="Path 107" d="M154.579,220.508h-.051a.13.13,0,0,1-.072-.174l.485-1.115.536.622a.133.133,0,0,1-.2.174l-.261-.3-.311.724A.13.13,0,0,1,154.579,220.508Z" transform="translate(-82.771 -137.901)" fill="#fff"/>
      <path id="Path_108" data-name="Path 108" d="M156.858,223.206a.138.138,0,0,1-.138-.13v-4.618a.138.138,0,0,1,.138-.138.13.13,0,0,1,.138.138v4.618a.13.13,0,0,1-.138.13Z" transform="translate(-83.399 -137.653)" fill="#fff"/>
      <path id="Path_109" data-name="Path 109" d="M156.309,219.508a.072.072,0,0,1-.051,0,.13.13,0,0,1-.072-.174l.485-1.115.536.622a.136.136,0,0,1-.2.188l-.253-.3-.311.724A.137.137,0,0,1,156.309,219.508Z" transform="translate(-83.249 -137.625)" fill="#fff"/>
      <path id="Path_110" data-name="Path 110" d="M131.05,224.346l-14.7-8.483V181.91l14.7,8.49Z" transform="translate(-72.249 -127.596)" fill="#e0e0e0"/>
      <path id="Path_111" data-name="Path 111" d="M125.78,192.18l1.99,1.151v-4.82l-1.99-1.151Z" transform="translate(-74.854 -129.101)" fill="#f5f5f5"/>
      <path id="Path_112" data-name="Path 112" d="M127.77,183.976l20.585-11.885-2-1.151L125.78,182.825Z" transform="translate(-74.854 -124.566)" fill="#fff"/>
      <path id="Path_113" data-name="Path 113" d="M108.337,211.262,81.882,195.99,55.42,211.262l26.462,15.279Z" transform="translate(-55.42 -131.485)" fill="#f5f5f5"/>
      <path id="Path_114" data-name="Path 114" d="M91.98,252.737l26.455-15.272V217.09L91.98,232.369Z" transform="translate(-65.518 -137.313)" fill="#ebebeb"/>
      <path id="Path_115" data-name="Path 115" d="M96.442,255.426a.542.542,0,0,1-.261-.072.811.811,0,0,1-.333-.724v-2.171h0V252.3h.109l1.694-1v2.417a1.954,1.954,0,0,1-.832,1.571A.781.781,0,0,1,96.442,255.426Zm-.326-2.8v2a.536.536,0,0,0,.2.492.369.369,0,0,0,.369-.036,1.708,1.708,0,0,0,.724-1.339v-.181h-.651l-.123-.847Zm.869.666h.42v-1.484L96.4,252.4l.5.087Z" transform="translate(-66.586 -146.762)" fill="#fff"/>
      <path id="Path_116" data-name="Path 116" d="M97.039,258.573a.13.13,0,0,1-.13-.13v-1.817a.138.138,0,1,1,.268,0v1.817a.13.13,0,0,1-.138.13Z" transform="translate(-66.878 -148.186)" fill="#fff"/>
      <path id="Path_117" data-name="Path 117" d="M95.951,259.549a.138.138,0,0,1-.065-.253l1.578-.9a.123.123,0,0,1,.181.043.13.13,0,0,1-.043.188l-1.578.926Z" transform="translate(-66.579 -148.714)" fill="#fff"/>
      <path id="Path_118" data-name="Path 118" d="M103.641,254.4a.334.334,0,0,1-.145,0,.362.362,0,0,1-.166-.333V253.7a.138.138,0,1,1,.275,0v.369a.152.152,0,0,0,0,.094h.094a.818.818,0,0,0,.246-.615v-2.41a.145.145,0,0,1,.138-.138.138.138,0,0,1,.138.138v2.41a1.042,1.042,0,0,1-.384.847A.42.42,0,0,1,103.641,254.4Z" transform="translate(-68.652 -146.679)" fill="#fff"/>
      <path id="Path_119" data-name="Path 119" d="M101.79,251.448v-.239a3.814,3.814,0,0,1,1.737-3,1.144,1.144,0,0,1,1.867,1.078v.08Zm2.548-3.221a1.448,1.448,0,0,0-.68.21,3.619,3.619,0,0,0-1.585,2.533l3.047-1.766a1.006,1.006,0,0,0-.413-.883A.724.724,0,0,0,104.338,248.227Z" transform="translate(-68.227 -145.831)" fill="#fff"/>
      <path id="Path_120" data-name="Path 120" d="M110.446,249.981a.13.13,0,0,1-.138-.138v-4.618a.138.138,0,1,1,.268,0v4.618a.13.13,0,0,1-.13.137Z" transform="translate(-70.579 -145.037)" fill="#fff"/>
      <path id="Path_121" data-name="Path 121" d="M109.947,246.256h-.058a.13.13,0,0,1-.065-.181l.478-1.115.543.622a.139.139,0,0,1-.21.181l-.253-.3-.311.724A.137.137,0,0,1,109.947,246.256Z" transform="translate(-70.442 -145.011)" fill="#fff"/>
      <path id="Path_122" data-name="Path 122" d="M112.178,249a.138.138,0,0,1-.138-.138v-4.618a.138.138,0,0,1,.275,0v4.618a.138.138,0,0,1-.138.137Z" transform="translate(-71.058 -144.776)" fill="#fff"/>
      <path id="Path_123" data-name="Path 123" d="M111.629,245.266h-.051a.13.13,0,0,1-.072-.174l.485-1.122.536.622a.138.138,0,0,1,0,.2.13.13,0,0,1-.188,0l-.261-.3-.311.724a.13.13,0,0,1-.138.051Z" transform="translate(-70.908 -144.737)" fill="#fff"/>
      <path id="Path_124" data-name="Path 124" d="M81.882,252.737,55.42,237.465V217.09l26.462,15.279Z" transform="translate(-55.42 -137.313)" fill="#e0e0e0"/>
      <path id="Path_125" data-name="Path 125" d="M72.32,231.67l1.99,1.151V228l-1.99-1.151Z" transform="translate(-60.088 -140.009)" fill="#f5f5f5"/>
      <path id="Path_126" data-name="Path 126" d="M74.31,222.17,100.773,206.9l-1.99-1.158L72.32,221.019Z" transform="translate(-60.088 -134.178)" fill="#fff"/>
      <path id="Path_127" data-name="Path 127" d="M60.732,234.45l6.312,3.619A2.787,2.787,0,0,1,68.3,240.24v3.9c0,.8-.565,1.122-1.259.724l-6.312-3.619a2.765,2.765,0,0,1-1.252-2.171v-3.894C59.48,234.37,60.045,234.08,60.732,234.45Z" transform="translate(-56.541 -142.064)" fill="#f5f5f5"/>
      <path id="Path_128" data-name="Path 128" d="M60.54,235.85l.239.137v4.328l-.239-.138Z" transform="translate(-56.834 -142.494)" fill="#e0e0e0"/>
      <path id="Path_129" data-name="Path 129" d="M61.88,236.63l.42.246V241.2l-.42-.239Z" transform="translate(-57.204 -142.71)" fill="#e0e0e0"/>
      <path id="Path_130" data-name="Path 130" d="M63.23,237.41l.246.138-.007,4.328-.239-.138Z" transform="translate(-57.577 -142.925)" fill="#e0e0e0"/>
      <path id="Path_131" data-name="Path 131" d="M64.25,237.99l.485.282-.007,4.328-.478-.29Z" transform="translate(-57.859 -143.085)" fill="#e0e0e0"/>
      <path id="Path_132" data-name="Path 132" d="M65.93,238.97l.239.138v4.328l-.239-.145Z" transform="translate(-58.323 -143.356)" fill="#e0e0e0"/>
      <path id="Path_133" data-name="Path 133" d="M66.9,239.52l.514.3v4.321l-.514-.3Z" transform="translate(-58.591 -143.508)" fill="#e0e0e0"/>
      <path id="Path_134" data-name="Path 134" d="M68.63,240.53l.239.138v4.321l-.239-.138Z" transform="translate(-59.069 -143.787)" fill="#e0e0e0"/>
      <path id="Path_135" data-name="Path 135" d="M69.4,240.96l.123.072v4.321l-.123-.065Z" transform="translate(-59.281 -143.906)" fill="#e0e0e0"/>
      <path id="Path_136" data-name="Path 136" d="M68.02,240.2l.116.065v4.328l-.116-.065Z" transform="translate(-58.9 -143.696)" fill="#e0e0e0"/>
      <path id="Path_137" data-name="Path 137" d="M65.3,238.61l.116.065V243l-.116-.072Z" transform="translate(-58.149 -143.257)" fill="#e0e0e0"/>
      <path id="Path_138" data-name="Path 138" d="M63.81,237.75l.123.072v4.321l-.123-.065Z" transform="translate(-57.737 -143.019)" fill="#e0e0e0"/>
      <path id="Path_139" data-name="Path 139" d="M62.74,237.16l.123.072v4.328l-.123-.072Z" transform="translate(-57.442 -142.856)" fill="#e0e0e0"/>
      <path id="Path_140" data-name="Path 140" d="M61.29,236.28l.123.072v4.321l-.123-.065Z" transform="translate(-57.041 -142.613)" fill="#e0e0e0"/>
      <path id="Path_141" data-name="Path 141" d="M69.98,241.3l.239.145v4.321l-.239-.137Z" transform="translate(-59.441 -144)" fill="#e0e0e0"/>
      <path id="Path_142" data-name="Path 142" d="M104.7,156.275,84.125,144.39,63.54,156.275l20.585,11.878Z" transform="translate(-57.663 -117.233)" fill="#f5f5f5"/>
      <path id="Path_143" data-name="Path 143" d="M91.98,213.43l20.578-11.885V160.81L91.98,172.688Z" transform="translate(-65.518 -121.768)" fill="#ebebeb"/>
      <path id="Path_144" data-name="Path 144" d="M96.442,222.6a.535.535,0,0,1-.261-.065.811.811,0,0,1-.333-.724v-2.171h0v-.159h.109l1.694-.992v2.41a1.962,1.962,0,0,1-.832,1.578.768.768,0,0,1-.376.123Zm-.326-2.8v2a.55.55,0,0,0,.2.492.369.369,0,0,0,.369-.036,1.723,1.723,0,0,0,.724-1.346v-.174h-.651l-.123-.847Zm.869.666h.42v-1.484l-1.006.594.5.087Z" transform="translate(-66.586 -137.7)" fill="#fff"/>
      <path id="Path_145" data-name="Path 145" d="M97.04,225.754a.13.13,0,0,1-.13-.138v-1.81a.134.134,0,1,1,.268,0v1.81a.13.13,0,0,1-.138.137Z" transform="translate(-66.879 -139.13)" fill="#fff"/>
      <path id="Path_146" data-name="Path 146" d="M95.951,226.728a.138.138,0,0,1-.065-.253l1.578-.912a.138.138,0,0,1,.138.239l-1.578.9A.123.123,0,0,1,95.951,226.728Z" transform="translate(-66.579 -139.648)" fill="#fff"/>
      <path id="Path_147" data-name="Path 147" d="M103.641,221.561a.261.261,0,0,1-.145-.043.347.347,0,0,1-.166-.326v-.369a.138.138,0,0,1,.275,0v.369a.152.152,0,0,0,0,.094.174.174,0,0,0,.094,0,.782.782,0,0,0,.246-.608v-2.41a.137.137,0,0,1,.138-.138.13.13,0,0,1,.138.138v2.41a1.042,1.042,0,0,1-.384.847A.419.419,0,0,1,103.641,221.561Z" transform="translate(-68.652 -137.6)" fill="#fff"/>
      <path id="Path_148" data-name="Path 148" d="M101.79,218.662v-.232a3.843,3.843,0,0,1,1.737-3.011,1.151,1.151,0,0,1,1.867,1.086v.072Zm2.548-3.214a1.448,1.448,0,0,0-.68.21,3.619,3.619,0,0,0-1.585,2.526l3.047-1.759a.992.992,0,0,0-.413-.883.724.724,0,0,0-.369-.13Z" transform="translate(-68.227 -136.778)" fill="#fff"/>
      <path id="Path_149" data-name="Path 149" d="M110.446,217.121a.138.138,0,0,1-.138-.138v-4.618a.138.138,0,1,1,.268,0v4.618a.138.138,0,0,1-.13.138Z" transform="translate(-70.579 -135.961)" fill="#fff"/>
      <path id="Path_150" data-name="Path 150" d="M109.947,213.416h-.058a.13.13,0,0,1-.065-.181l.478-1.115.543.622a.138.138,0,0,1,0,.188.145.145,0,0,1-.2,0l-.253-.3-.311.724a.13.13,0,0,1-.138.058Z" transform="translate(-70.442 -135.94)" fill="#fff"/>
      <path id="Path_151" data-name="Path 151" d="M112.178,216.133a.145.145,0,0,1-.138-.138v-4.618a.138.138,0,1,1,.275,0V216a.145.145,0,0,1-.138.138Z" transform="translate(-71.058 -135.697)" fill="#fff"/>
      <path id="Path_152" data-name="Path 152" d="M111.629,212.436h-.051a.137.137,0,0,1-.072-.181l.485-1.115.536.622a.137.137,0,0,1,0,.2.145.145,0,0,1-.188,0l-.261-.3-.311.724A.137.137,0,0,1,111.629,212.436Z" transform="translate(-70.908 -135.669)" fill="#fff"/>
      <path id="Path_153" data-name="Path 153" d="M84.125,213.43,63.54,201.545V160.81l20.585,11.878Z" transform="translate(-57.663 -121.768)" fill="#e0e0e0"/>
      <path id="Path_154" data-name="Path 154" d="M77.03,173.411l2,1.151v-4.813l-2-1.158Z" transform="translate(-61.389 -123.917)" fill="#f5f5f5"/>
      <path id="Path_155" data-name="Path 155" d="M79.028,165.216l20.578-11.885-1.99-1.151L77.03,164.058Z" transform="translate(-61.389 -119.385)" fill="#fff"/>
      <path id="Path_156" data-name="Path 156" d="M68.849,206.3l6.312,3.619a2.758,2.758,0,0,1,1.252,2.171v3.894c0,.8-.557,1.122-1.252.724l-6.312-3.619a2.765,2.765,0,0,1-1.259-2.171v-3.894C67.6,206.223,68.155,205.9,68.849,206.3Z" transform="translate(-58.781 -134.284)" fill="#f5f5f5"/>
      <path id="Path_157" data-name="Path 157" d="M68.65,207.71l.239.138v4.328l-.239-.145Z" transform="translate(-59.074 -134.722)" fill="#e0e0e0"/>
      <path id="Path_158" data-name="Path 158" d="M70,208.49l.413.239v4.328L70,212.811Z" transform="translate(-59.447 -134.938)" fill="#e0e0e0"/>
      <path id="Path_159" data-name="Path 159" d="M71.35,209.26l.239.145v4.321l-.239-.138Z" transform="translate(-59.82 -135.15)" fill="#e0e0e0"/>
      <path id="Path_160" data-name="Path 160" d="M72.37,209.84l.478.29v4.321l-.478-.282Z" transform="translate(-60.102 -135.31)" fill="#e0e0e0"/>
      <path id="Path_161" data-name="Path 161" d="M74.05,210.82l.239.138v4.328l-.239-.138Z" transform="translate(-60.566 -135.581)" fill="#e0e0e0"/>
      <path id="Path_162" data-name="Path 162" d="M75.02,211.37l.514.3V216l-.514-.3Z" transform="translate(-60.834 -135.733)" fill="#e0e0e0"/>
      <path id="Path_163" data-name="Path 163" d="M76.75,212.38l.239.138v4.328l-.239-.145Z" transform="translate(-61.311 -136.012)" fill="#e0e0e0"/>
      <path id="Path_164" data-name="Path 164" d="M77.52,212.82l.116.065v4.328l-.116-.072Z" transform="translate(-61.524 -136.134)" fill="#e0e0e0"/>
      <path id="Path_165" data-name="Path 165" d="M76.13,212.05l.123.072v4.328l-.123-.072Z" transform="translate(-61.14 -135.921)" fill="#e0e0e0"/>
      <path id="Path_166" data-name="Path 166" d="M73.41,210.46l.123.072v4.321l-.123-.065Z" transform="translate(-60.389 -135.482)" fill="#e0e0e0"/>
      <path id="Path_167" data-name="Path 167" d="M71.92,209.61l.123.065V214l-.123-.072Z" transform="translate(-59.977 -135.247)" fill="#e0e0e0"/>
      <path id="Path_168" data-name="Path 168" d="M70.86,209.02l.116.065v4.328l-.116-.072Z" transform="translate(-59.685 -135.084)" fill="#e0e0e0"/>
      <path id="Path_169" data-name="Path 169" d="M69.41,208.14l.116.065v4.328l-.116-.072Z" transform="translate(-59.284 -134.841)" fill="#e0e0e0"/>
      <path id="Path_170" data-name="Path 170" d="M78.09,213.16l.246.138v4.321l-.246-.138Z" transform="translate(-61.681 -136.227)" fill="#e0e0e0"/>
    </g>
    <g id="freepik--Device--inject-46" transform="translate(53.594 141.666)">
      <path id="Path_171" data-name="Path 171" d="M63.315,275.965l79,45.6a6.927,6.927,0,0,0,6.268,0L321.66,221.68c1.73-1,1.73-2.62,0-3.619l-79-45.6a6.883,6.883,0,0,0-6.268,0L63.315,272.346C61.585,273.345,61.585,274.966,63.315,275.965Z" transform="translate(-61.665 -171.707)" fill="#455a64"/>
      <path id="Path_172" data-name="Path 172" d="M122.11,342.684a9.641,9.641,0,0,0,8.686,0c2.41-1.39,2.41-3.619,0-5.03a9.6,9.6,0,0,0-8.686,0C119.7,339.065,119.7,341.309,122.11,342.684Z" transform="translate(-77.763 -217.255)" fill="#263238"/>
      <path id="Path_173" data-name="Path 173" d="M143.659,360.1l-79-45.6c-1.549-.9-1.708-2.287-.485-3.286a7.014,7.014,0,0,0-2.649,5.067v2.946a6.934,6.934,0,0,0,3.134,5.429l79,45.6a6.391,6.391,0,0,0,3.134.724V360.848A6.392,6.392,0,0,1,143.659,360.1Z" transform="translate(-61.53 -210.238)" fill="#37474f"/>
      <path id="Path_174" data-name="Path 174" d="M353.489,249.641a6.92,6.92,0,0,0,3.141-5.428v-2.946a6.963,6.963,0,0,0-2.656-5.067c1.23,1,1.071,2.389-.478,3.279l-173.082,99.9a6.435,6.435,0,0,1-3.134.724v10.184a6.434,6.434,0,0,0,3.134-.724Z" transform="translate(-93.5 -189.52)" fill="#263238"/>
      <path id="Path_175" data-name="Path 175" d="M161.78,315.826,86.172,272.152a1.145,1.145,0,0,1,0-2.171l146.15-84.4a4.155,4.155,0,0,1,3.764,0l75.637,43.667a1.147,1.147,0,0,1,0,2.171L165.515,315.826a4.155,4.155,0,0,1-3.735,0Z" transform="translate(-68.12 -175.414)" fill="#fff"/>
      <path id="Path_176" data-name="Path 176" d="M147.719,329.419l8.823-5.1L153.6,322.63l-8.823,5.088Z" transform="translate(-84.524 -213.392)" fill="#faf7f0"/>
      <path id="Path_177" data-name="Path 177" d="M293.959,244.989l8.823-5.1-2.946-1.694-8.816,5.1Z" transform="translate(-124.915 -190.072)" fill="#faf7f0"/>
      <path id="Path_178" data-name="Path 178" d="M318.329,230.919l8.823-5.1-2.939-1.694-8.823,5.088Z" transform="translate(-131.646 -186.186)" fill="#faf7f0"/>
      <path id="Path_179" data-name="Path 179" d="M358.4,208.272a2.468,2.468,0,0,0,2.208,0,.673.673,0,0,0,0-1.274,2.425,2.425,0,0,0-2.208,0,.673.673,0,0,0,0,1.274Z" transform="translate(-143.399 -181.381)" fill="#263238"/>
      <path id="Path_180" data-name="Path 180" d="M363.092,221.5a4.878,4.878,0,0,0,4.408,0c1.216-.724,1.216-1.846,0-2.548a4.878,4.878,0,0,0-4.408,0A1.346,1.346,0,0,0,363.092,221.5Z" transform="translate(-144.57 -184.61)" fill="#263238"/>
      <path id="Path_181" data-name="Path 181" d="M352.2,212.535c.811-.47.767-1.252-.094-1.752l-14.476-8.374a3.337,3.337,0,0,0-3.04-.058c-.811.47-.767,1.252.094,1.752l14.519,8.374A3.344,3.344,0,0,0,352.2,212.535Z" transform="translate(-136.788 -180.078)" fill="#263238"/>
    </g>
    <g id="freepik--Locator--inject-46" transform="translate(239.594 134.733)">
      <path id="Path_182" data-name="Path 182" d="M324.6,167.558l.492-.29a13.754,13.754,0,0,0-.492,3.793v1.766c0,6.34,7.607,22.539,10.408,28.272.29.6-3.554,4.69-3.554,4.69l4.567-2.635s11.414-9.409,11.414-17.14v-1.766c0-7.766-5.11-17.009-11.414-20.65-3.185-1.831-6.058-1.9-8.128-.507h0l-4.343,2.49Zm5.711,5.928c0-3.619,2.555-5.117,5.711-3.293-.261,2.338,4.01,9.619,5.7,9.887,0,3.619-2.555,5.117-5.7,3.293a12.609,12.609,0,0,1-5.682-9.887Z" transform="translate(-319.9 -162.128)" fill="#faf7f0"/>
      <path id="Path_183" data-name="Path 183" d="M318.509,176.7c.13,7.759,11.914,30.132,11.914,30.132s11.262-9.569,11.139-17.328v-1.766c-.13-7.759-5.392-16.922-11.762-20.455s-11.422-.116-11.291,7.651Zm5.718.565c-.058-3.619,2.475-5.161,5.653-3.395a12.616,12.616,0,0,1,5.87,9.793c.065,3.619-2.468,5.161-5.653,3.395a12.652,12.652,0,0,1-5.87-9.793Z" transform="translate(-318.507 -163.166)" fill="#faf7f0"/>
      <path id="Path_184" data-name="Path 184" d="M318.509,176.7c.13,7.759,11.914,30.132,11.914,30.132s11.262-9.569,11.139-17.328v-1.766c-.13-7.759-5.392-16.922-11.762-20.455s-11.422-.116-11.291,7.651Zm5.718.565c-.058-3.619,2.475-5.161,5.653-3.395a12.616,12.616,0,0,1,5.87,9.793c.065,3.619-2.468,5.161-5.653,3.395a12.652,12.652,0,0,1-5.87-9.793Z" transform="translate(-318.507 -163.166)" opacity="0.1"/>
    </g>
    <g id="freepik--Shadow--inject-46" transform="translate(125.924 198.971)">
      <path id="Path_185" data-name="Path 185" d="M164.746,303.652c7.318,4.212,24.472,1.151,38.318-6.847L241.1,274.852c13.846-8,19.13-17.885,11.8-22.09s-24.5-1.129-38.361,6.862l-37.963,21.924C162.734,289.538,157.436,299.461,164.746,303.652Z" transform="translate(-161.461 -250.879)" fill="#f0f0f0"/>
    </g>
    <g id="freepik--Chronometer--inject-46" transform="translate(233.054 62.943)">
      <g id="freepik--Clock--inject-46">
        <path id="Path_186" data-name="Path 186" d="M316.368,67.7h.036l6.261-3.619h.051c3.945-2,9.214-1.448,14.889,2.244,11.407,7.339,20.114,24.276,19.456,37.819-.333,6.753-2.9,11.385-6.854,13.426h-.036l-6.268,3.619h-.043c-3.945,2-9.221,1.448-14.9-2.237-11.4-7.347-20.107-24.276-19.449-37.819C309.854,74.377,312.453,69.745,316.368,67.7Z" transform="translate(-309.472 -62.943)" fill="#37474f"/>
        <path id="Path_187" data-name="Path 187" d="M357.48,129.469l5.971-3.474h.043c3.923-2.048,6.514-6.681,6.847-13.426a42.226,42.226,0,0,0-4.118-18.978l-6.268,3.619a42.043,42.043,0,0,1,4.118,18.985C363.763,122.781,361.273,127.362,357.48,129.469Z" transform="translate(-322.732 -71.408)" fill="#263238"/>
        <path id="Path_188" data-name="Path 188" d="M329,120.314c-11.4-7.347-20.107-24.276-19.448-37.818S320,63.923,331.376,71.262s20.114,24.276,19.456,37.818S340.395,127.654,329,120.314Z" transform="translate(-309.483 -64.309)" fill="#455a64"/>
        <path id="Path_189" data-name="Path 189" d="M340.186,121c6.724.326,7.817-7.238,7.962-10.5.579-11.943-7.426-27.5-17.48-33.982a15.2,15.2,0,0,0-7.238-2.678c-6.717-.326-7.81,7.238-7.962,10.5-.579,11.943,7.419,27.5,17.48,34.019a15.2,15.2,0,0,0,7.238,2.678Z" transform="translate(-311.12 -65.952)" fill="#fafafa"/>
        <path id="Path_190" data-name="Path 190" d="M332.412,102.379a.63.63,0,0,0,.232-.043.724.724,0,0,0,.5-.724V84.364a.724.724,0,0,0-1.448,0V99.513l-8.056-10.35a.733.733,0,1,0-1.158.9l9.373,12.037A.724.724,0,0,0,332.412,102.379Z" transform="translate(-313.022 -68.66)" fill="#37474f"/>
        <path id="Path_191" data-name="Path 191" d="M340.341,121.715a.261.261,0,0,0,.1,0,.311.311,0,0,0,.21-.376l-4.06-13.673a.306.306,0,0,0-.586.174l4.053,13.673A.3.3,0,0,0,340.341,121.715Z" transform="translate(-316.797 -75.235)" fill="#faf7f0"/>
        <path id="Path_192" data-name="Path 192" d="M335.6,103.589c-1.346-.861-2.5-.268-2.57,1.325a5.516,5.516,0,0,0,2.287,4.444c1.339.869,2.49.275,2.569-1.317A5.551,5.551,0,0,0,335.6,103.589Z" transform="translate(-315.978 -74.061)" fill="#faf7f0"/>
      </g>
    </g>
    <g id="freepik--Character--inject-46" transform="translate(116.811 140.751)">
      <path id="Path_193" data-name="Path 193" d="M172.1,315.349l8.816-5.1-2.939-1.694-8.816,5.088Z" transform="translate(-154.474 -208.59)" fill="#faf7f0"/>
      <path id="Path_194" data-name="Path 194" d="M196.469,301.279l8.823-5.1-2.946-1.694-8.816,5.088Z" transform="translate(-161.205 -204.704)" fill="#faf7f0"/>
      <path id="Path_195" data-name="Path 195" d="M187.512,299.19a14.854,14.854,0,0,1-6.666,11.581c-1.962,1.136-3.728,1.173-4.944.318h0a4.394,4.394,0,0,1-1.672-3.206,8.107,8.107,0,0,0,.724-.384,14.731,14.731,0,0,0,6.666-11.581,6.609,6.609,0,0,0-.058-.948,4.5,4.5,0,0,1,3.619-.261C186.629,295.318,187.512,296.889,187.512,299.19Z" transform="translate(-155.874 -204.693)" fill="#263238"/>
      <path id="Path_196" data-name="Path 196" d="M186.709,288.661l-.123-.072c-1.853-.984-4.343-.8-7.144.8-5.682,3.279-10.292,11.255-10.292,17.82,0,3.3,1.165,5.609,3.047,6.681s4.422.89,7.238-.724c5.682-3.279,10.285-11.262,10.285-17.827C189.728,292.042,188.584,289.733,186.709,288.661Zm-7.238,20.31c-1.969,1.136-3.735,1.173-4.951.311-1.071-.724-1.723-2.171-1.723-4.162a14.873,14.873,0,0,1,6.673-11.581,4.86,4.86,0,0,1,4.343-.637c1.4.6,2.287,2.171,2.287,4.488a14.753,14.753,0,0,1-6.659,11.6Z" transform="translate(-154.471 -202.907)" fill="#37474f"/>
      <path id="Path_197" data-name="Path 197" d="M185.535,294.882l-.08-.043c-1.2-.644-2.83-.521-4.632.514a14.761,14.761,0,0,0-6.673,11.581c0,2.171.724,3.619,1.976,4.343s2.9.579,4.7-.478a14.753,14.753,0,0,0,6.666-11.581C187.49,297.076,186.744,295.57,185.535,294.882Zm-4.712,14.367c-1.578.912-3,.941-3.981.246a3.906,3.906,0,0,1-1.382-3.344,11.856,11.856,0,0,1,5.363-9.286,3.974,3.974,0,0,1,3.525-.514c1.129.485,1.838,1.744,1.838,3.619a11.834,11.834,0,0,1-5.363,9.279Z" transform="translate(-155.852 -204.692)" fill="#faf7f0"/>
      <path id="Path_198" data-name="Path 198" d="M220.839,287.2l8.823-5.088-2.939-1.7-8.823,5.1Z" transform="translate(-167.936 -200.815)" fill="#faf7f0"/>
      <path id="Path_199" data-name="Path 199" d="M245.216,273.129l8.816-5.088-2.939-1.7-8.823,5.1Z" transform="translate(-174.667 -196.929)" fill="#faf7f0"/>
      <path id="Path_200" data-name="Path 200" d="M269.586,259.059l8.816-5.088-2.939-1.7-8.823,5.1Z" transform="translate(-181.398 -193.043)" fill="#faf7f0"/>
      <path id="Path_201" data-name="Path 201" d="M209.75,196.109a.724.724,0,0,1,1.3.456,2.627,2.627,0,0,1-.789,2.258c-.579.5-1.165.3-1.3-.456a2.635,2.635,0,0,1,.789-2.258Z" transform="translate(-165.461 -177.451)" fill="#faf7f0"/>
      <path id="Path_202" data-name="Path 202" d="M216.695,199.339l-5.9-3.409-1.3,3.12,5.921,3.416Z" transform="translate(-165.616 -177.482)" fill="#faf7f0"/>
      <path id="Path_203" data-name="Path 203" d="M217.878,200.808c.579-.492,1.158-.29,1.3.463a2.642,2.642,0,0,1-.8,2.251c-.579.5-1.165.3-1.3-.456A2.664,2.664,0,0,1,217.878,200.808Z" transform="translate(-167.704 -178.755)" fill="#faf7f0"/>
      <path id="Path_204" data-name="Path 204" d="M272.989,237.721v1.3a4.923,4.923,0,0,0-4.379.637,14.761,14.761,0,0,0-6.673,11.581,4.835,4.835,0,0,0,1.723,4.162,10.668,10.668,0,0,1-.934.594l-.34.174-1.021,3.843-5.906-3.293c-1.867-1.078-3.018-3.38-3.018-6.666,0-6.565,4.6-14.541,10.285-17.827,2.808-1.621,5.349-1.788,7.238-.724h0l5.79,3.243.123.072Z" transform="translate(-177.476 -187.121)" fill="#455a64"/>
      <path id="Path_205" data-name="Path 205" d="M278.109,235.991l-.123-.072c-1.853-.984-4.343-.8-7.144.8-5.682,3.279-10.292,11.255-10.292,17.82,0,3.3,1.165,5.609,3.047,6.681s4.422.89,7.238-.724c5.682-3.279,10.285-11.262,10.285-17.827C281.142,239.372,279.977,237.063,278.109,235.991Zm-7.238,20.31c-1.969,1.136-3.735,1.173-4.951.311-1.071-.724-1.723-2.171-1.723-4.162a14.873,14.873,0,0,1,6.673-11.581,4.923,4.923,0,0,1,4.379-.637c1.4.6,2.287,2.171,2.287,4.488a14.8,14.8,0,0,1-6.7,11.581Z" transform="translate(-179.716 -188.36)" fill="#37474f"/>
      <path id="Path_206" data-name="Path 206" d="M278.932,246.54a14.854,14.854,0,0,1-6.666,11.581c-1.961,1.136-3.728,1.173-4.944.318h0a4.393,4.393,0,0,1-1.672-3.206,8.134,8.134,0,0,0,.724-.384,14.731,14.731,0,0,0,6.666-11.581,6.6,6.6,0,0,0-.058-.948,4.5,4.5,0,0,1,3.619-.261C278.034,242.668,278.932,244.224,278.932,246.54Z" transform="translate(-181.125 -190.151)" fill="#263238"/>
      <path id="Path_207" data-name="Path 207" d="M276.935,242.211l-.08-.051c-1.2-.637-2.837-.521-4.632.521a14.75,14.75,0,0,0-6.673,11.581c0,2.171.724,3.619,1.976,4.343s2.9.572,4.7-.485a14.731,14.731,0,0,0,6.666-11.581C278.9,244.4,278.18,242.906,276.935,242.211Zm-4.712,14.36c-1.585.919-3,.948-3.981.253a3.886,3.886,0,0,1-1.383-3.344,11.856,11.856,0,0,1,5.363-9.286,3.935,3.935,0,0,1,3.518-.514c1.129.485,1.838,1.744,1.838,3.619a11.827,11.827,0,0,1-5.356,9.272Z" transform="translate(-181.097 -190.143)" fill="#faf7f0"/>
      <path id="Path_208" data-name="Path 208" d="M266.637,244.526l16.647-9.612c1.933-1.122-4.343-7.672-9.011-8.114a18.023,18.023,0,0,0-7.643.724s3.554,4.553,2.946,7.137S266.637,244.526,266.637,244.526Z" transform="translate(-181.395 -185.972)" fill="#faf7f0"/>
      <path id="Path_209" data-name="Path 209" d="M220.133,213.81s24.131,12.174,25.174,12.905,0,9.221-1.658,14.259-4.205,12.782-5.226,14.954-2.352,2.982-4.8,4.393L216.253,270.36l-23.516,2.866L183.4,268.16l2.432-15.279s24.993-13.3,28.416-15.272S227.8,226.361,220.133,213.81Z" transform="translate(-158.407 -182.42)" fill="#faf7f0"/>
      <path id="Path_210" data-name="Path 210" d="M220.133,213.81s24.131,12.174,25.174,12.905,0,9.221-1.658,14.259-4.205,12.782-5.226,14.954-2.352,2.982-4.8,4.393L216.253,270.36l-23.516,2.866L183.4,268.16l2.432-15.279s24.993-13.3,28.416-15.272S227.8,226.361,220.133,213.81Z" transform="translate(-158.407 -182.42)" opacity="0.2"/>
      <path id="Path_211" data-name="Path 211" d="M260.919,238.124c2.171-5.834,3.793-10.669,3.518-13.933-.333-3.872-1.781-7.035-8.164-8.628S240.964,214,240.964,214l-2.714,1.571s18.356,10.64,20.44,11.8c1.274.724,2.635,3.916.138,13.665l.427.246C259.465,241.41,260.224,240,260.919,238.124Z" transform="translate(-173.557 -182.473)" fill="#faf7f0"/>
      <path id="Path_212" data-name="Path 212" d="M260.919,238.124c2.171-5.834,3.793-10.669,3.518-13.933-.333-3.872-1.781-7.035-8.164-8.628S240.964,214,240.964,214l-2.714,1.571s18.356,10.64,20.44,11.8c1.274.724,2.635,3.916.138,13.665l.427.246C259.465,241.41,260.224,240,260.919,238.124Z" transform="translate(-173.557 -182.473)" fill="#fff" opacity="0.3"/>
      <path id="Path_213" data-name="Path 213" d="M241.395,217.146l2.968-1.694s-.174-10.285-4.5-12.782-19.021-.8-19.021-.8l-2.939,1.694Z" transform="translate(-167.936 -178.968)" fill="#faf7f0"/>
      <path id="Path_214" data-name="Path 214" d="M236.656,206.208c-1.411.818-1.411,2.135,0,2.946a5.631,5.631,0,0,0,5.11,0c1.4-.811,1.4-2.135,0-2.946A5.675,5.675,0,0,0,236.656,206.208Z" transform="translate(-172.824 -180.153)" fill="#f0f0f0"/>
      <path id="Path_215" data-name="Path 215" d="M243.016,213.066a1.1,1.1,0,0,0,0,2.085,3.974,3.974,0,0,0,3.619,0,1.1,1.1,0,0,0,0-2.085A4.017,4.017,0,0,0,243.016,213.066Z" transform="translate(-174.668 -182.096)" fill="#f0f0f0"/>
      <path id="Path_216" data-name="Path 216" d="M227.3,204.464a1.1,1.1,0,0,0,0,2.085,4.017,4.017,0,0,0,3.619,0,1.1,1.1,0,0,0,0-2.085,3.974,3.974,0,0,0-3.619,0Z" transform="translate(-170.327 -179.719)" fill="#f0f0f0"/>
      <path id="Path_217" data-name="Path 217" d="M250.687,218.966c.579-.5,1.158-.3,1.3.456a2.656,2.656,0,0,1-.8,2.258.724.724,0,0,1-1.3-.456,2.627,2.627,0,0,1,.8-2.258Z" transform="translate(-176.766 -183.769)" fill="#faf7f0"/>
      <path id="Path_218" data-name="Path 218" d="M257.585,222.189l-5.906-3.409-1.288,3.12,5.913,3.409Z" transform="translate(-176.91 -183.793)" fill="#faf7f0"/>
      <path id="Path_219" data-name="Path 219" d="M258.758,223.649a.724.724,0,0,1,1.3.456,2.635,2.635,0,0,1-.8,2.258c-.579.5-1.158.29-1.3-.456A2.649,2.649,0,0,1,258.758,223.649Z" transform="translate(-178.995 -185.058)" fill="#faf7f0"/>
      <path id="Path_220" data-name="Path 220" d="M258.758,223.649a.724.724,0,0,1,1.3.456,2.635,2.635,0,0,1-.8,2.258c-.579.5-1.158.29-1.3-.456A2.649,2.649,0,0,1,258.758,223.649Z" transform="translate(-178.995 -185.058)"/>
      <path id="Path_221" data-name="Path 221" d="M181.6,290.371v1.3a4.839,4.839,0,0,0-4.343.637,14.761,14.761,0,0,0-6.673,11.581,4.835,4.835,0,0,0,1.723,4.162,10.653,10.653,0,0,1-.934.594l-.34.174-1.021,3.843-5.906-3.293c-1.867-1.078-3.018-3.38-3.018-6.666,0-6.565,4.6-14.541,10.285-17.827,2.808-1.621,5.349-1.788,7.238-.724h0l5.79,3.243.123.072Z" transform="translate(-152.245 -201.663)" fill="#455a64"/>
      <path id="Path_222" data-name="Path 222" d="M163.408,277.13,159,292.409l8.823,5.1,4.567-15.185Z" transform="translate(-151.668 -199.91)" fill="#faf7f0"/>
      <path id="Path_223" data-name="Path 223" d="M163.408,277.13,159,292.409l8.823,5.1,4.567-15.185Z" transform="translate(-151.668 -199.91)" opacity="0.2"/>
      <path id="Path_224" data-name="Path 224" d="M165.09,273.244s5,4.249,8.982,5.19c5.226,1.267,13.535,1.4,16.481,1.607,4.5.311,7.9.3,9.5-.268a91.933,91.933,0,0,0,9.142-4.828c2.939-1.694,4.191-8.36-3.908-10.184a81.791,81.791,0,0,0-16.647-1.7Z" transform="translate(-153.35 -196.023)" fill="#faf7f0"/>
      <path id="Path_225" data-name="Path 225" d="M233.72,273.066a7.962,7.962,0,0,0-.507,1.962,4.422,4.422,0,0,0-.159,2.171,4.343,4.343,0,0,0,2.439,1.9,5.479,5.479,0,0,0,4.292-.832c1.5-.9,2.627-1.983,4.755-2.591a10.7,10.7,0,0,0,4.2-1.9c1.18-.948,2.758-3.568.5-4.176s-7.166,1.534-11.639,1.73Z" transform="translate(-172.103 -197.799)" fill="#37474f"/>
      <path id="Path_226" data-name="Path 226" d="M234,270.57v3.344a2.228,2.228,0,0,0,2.852,1.3,2.975,2.975,0,0,0,1.911-2.649l.13-1.99Z" transform="translate(-172.383 -198.098)" fill="#ffa8a7"/>
      <path id="Path_227" data-name="Path 227" d="M239.817,242c0,4.162-1.173,22.155-1.173,22.155s-1.7,2.171-5.4,0L232,244.048Z" transform="translate(-171.831 -190.207)" fill="#37474f"/>
      <path id="Path_228" data-name="Path 228" d="M210.915,259.924l11.581-6.673a2.939,2.939,0,0,0,0-5.2l-8.628-4.98a3.467,3.467,0,0,0-3.134,0l-11.581,6.673a2.946,2.946,0,0,0,0,5.2l8.628,4.98A3.467,3.467,0,0,0,210.915,259.924Z" transform="translate(-162.326 -190.398)" fill="#faf7f0"/>
      <path id="Path_229" data-name="Path 229" d="M210.915,259.924l11.581-6.673a2.939,2.939,0,0,0,0-5.2l-8.628-4.98a3.467,3.467,0,0,0-3.134,0l-11.581,6.673a2.946,2.946,0,0,0,0,5.2l8.628,4.98A3.467,3.467,0,0,0,210.915,259.924Z" transform="translate(-162.326 -190.398)" fill="#fff"/>
      <path id="Path_230" data-name="Path 230" d="M199.5,251.55l8.628,4.98a3.467,3.467,0,0,0,3.134,0l11.581-6.673a.955.955,0,0,0,0-1.809l-8.628-4.98a3.467,3.467,0,0,0-3.134,0L199.5,249.741a.955.955,0,0,0,0,1.81Z" transform="translate(-162.676 -190.398)" fill="#faf7f0"/>
      <path id="Path_231" data-name="Path 231" d="M206.531,192.984l-1.469,6.058-6.312.384,1.361-8.4Z" transform="translate(-162.647 -176.129)" fill="#ffa8a7"/>
      <path id="Path_232" data-name="Path 232" d="M217.638,187.43s.724,2.562.427,2.707a4.56,4.56,0,0,1-1.375,0Z" transform="translate(-167.602 -175.134)" fill="#f28f8f"/>
      <path id="Path_233" data-name="Path 233" d="M211.852,175.247c1.013,1.194,1.94,3.156,1.223,7.962-.782,5.255-1.752,5.863-2.533,6.369-1.021.666-5.1.311-6.254-.528a13.139,13.139,0,0,1-4.024-7.347c-.594-3.7.644-7.8,3.366-8.5A9.128,9.128,0,0,1,211.852,175.247Z" transform="translate(-163.025 -171.13)" fill="#ffa8a7"/>
      <path id="Path_234" data-name="Path 234" d="M198.631,187.045c.977,1.013,2.982,1.288,4.241,1.52s5.132.485,6.275-2.273.362-4.741,1.766-5.407a27.649,27.649,0,0,0,3.177-1.448c.369-.347.376-4.886-3.395-7.238s-9.547-2.9-13.347,1.875C194.469,177.758,195.649,183.932,198.631,187.045Z" transform="translate(-161.804 -170.442)" fill="#455a64"/>
      <path id="Path_235" data-name="Path 235" d="M205,191.6c.977.087,4.068-.4,5-1.672a11.239,11.239,0,0,0,1.448-4.748,2.07,2.07,0,0,1,1.672-1.976c.934-.3,3-1.31,3-1.31v-.565a15.936,15.936,0,0,1,2,0c.434.08.2.724-.9,1.281s-4.118,1.636-4.582,2-.68,1.925-1.049,3.583S210.067,192.33,205,191.6Z" transform="translate(-164.373 -173.44)" fill="#37474f"/>
      <path id="Path_236" data-name="Path 236" d="M215.13,202.817l3.619-2.077c.347-1.049-.21-1.578-1.194-1.513s-.68-.89-1.281-1.158c-.789-.362-1.238-.159-1.592-.326s-.507-.586-.97-.637c-2.07-.2-3.481,2.758-3.481,2.758Z" transform="translate(-165.818 -177.804)" fill="#f28f8f"/>
      <path id="Path_237" data-name="Path 237" d="M183.06,237.008s15.989-7.926,18.775-9.207,7.158-3.141,9.482-3.141a3.785,3.785,0,0,1,3.467,3.547,26.62,26.62,0,0,1-.239,4.176,98.334,98.334,0,0,1-13.434,3.38C194.46,236.921,183.06,237.008,183.06,237.008Z" transform="translate(-158.313 -185.417)" fill="#37474f"/>
      <path id="Path_238" data-name="Path 238" d="M185.448,234.946c0,3.286-.311,6.7,1.057,9.105s8.78,7.962,15.757,6.8c4.56-.767,18.095-7,18.095-7s6.565-2.41,6.594-4.126c.043-2.526-.13-6.087-5.856-5.935-5.219.138-20.614,3.351-20.614,3.351Z" transform="translate(-158.965 -187.937)" fill="#455a64"/>
      <path id="Path_239" data-name="Path 239" d="M189.922,198.43c2.475-2.584,4.147-2.8,5.334-2.483a41.661,41.661,0,0,1,7.882,3.156h0s-.955,9.25,3.568,11.914v14.418a5.021,5.021,0,0,1-2.106,3.12c-1.737,1.368-5.667,2.75-10.358,2.36-5.573-.463-8.787-6.449-8.787-6.449s-.145-11.791.644-16.474C187.027,202.526,189.068,199.327,189.922,198.43Z" transform="translate(-158.972 -177.455)" fill="#455a64"/>
      <path id="Path_240" data-name="Path 240" d="M213.458,215.874a11.753,11.753,0,0,1-3.568-4.994s.326,4.43,3.568,6.673Z" transform="translate(-165.724 -181.611)" fill="#37474f"/>
      <path id="Path_241" data-name="Path 241" d="M249.324,224.56a5.653,5.653,0,0,0,3.619-1.122s1.259-2.446,2.808-2.237c0,0,.275-1.042-.362-1.382s-.912-.246-1.173-.608-.29-1.035-1.448-1.035c-.478,0-.413-.34-1.571-.478s-2.3,2.533-3.148,2.533Z" transform="translate(-176.264 -183.493)" fill="#ffa8a7"/>
      <path id="Path_242" data-name="Path 242" d="M209.751,200.35c3.974.615,5.414,1.8,6.862,3.134s10.307,10.227,10.307,10.227l10.727,1.542a3.619,3.619,0,0,1,1.187,1.766,3.165,3.165,0,0,1-.369,2.96s-10.64.637-12.732.239-12.449-7.274-12.449-7.274a9.279,9.279,0,0,1-3.619-6.246C208.991,202.333,209.751,200.35,209.751,200.35Z" transform="translate(-165.584 -178.703)" fill="#455a64"/>
      <path id="Path_243" data-name="Path 243" d="M183.5,244.889l-16.437,20.064a4.554,4.554,0,0,1-.55.036,3.936,3.936,0,0,1-1.875-.441l-13.882-8.02-.941-.543a3.561,3.561,0,0,1-.941-2.714v-3.38a19.783,19.783,0,0,1,9.89-17.134l16.572-9.567,17.639,10.184Z" transform="translate(-148.87 -185.011)" fill="#faf7f0"/>
      <g id="Group_111" data-name="Group 111" transform="translate(0 38.179)" opacity="0.1">
        <path id="Path_244" data-name="Path 244" d="M183.5,244.889l-16.437,20.064a4.554,4.554,0,0,1-.55.036,3.936,3.936,0,0,1-1.875-.441l-13.882-8.02-.941-.543a3.561,3.561,0,0,1-.941-2.714v-3.38a19.783,19.783,0,0,1,9.89-17.134l16.572-9.567,17.639,10.184Z" transform="translate(-148.87 -223.19)"/>
      </g>
      <path id="Path_245" data-name="Path 245" d="M179.47,251.812l15.12-18.428L176.951,223.2l-16.568,9.561a19.744,19.744,0,0,0-5.573,4.813Z" transform="translate(-150.511 -185.014)" fill="#faf7f0"/>
      <path id="Path_246" data-name="Path 246" d="M199.672,252.062a3.534,3.534,0,0,1-.941,2.714l-.941.543-22.7,13.108a3.618,3.618,0,0,1-1.332.413,4.58,4.58,0,0,1-.55.036v-4.915a19.775,19.775,0,0,1,9.9-17.134l1.872-1.077,14.693-8.49Z" transform="translate(-155.593 -188.897)" fill="#faf7f0"/>
      <g id="Group_112" data-name="Group 112" transform="translate(17.617 48.363)" opacity="0.2">
        <path id="Path_247" data-name="Path 247" d="M199.672,252.062a3.534,3.534,0,0,1-.941,2.714l-.941.543-22.7,13.108a3.618,3.618,0,0,1-1.332.413,4.58,4.58,0,0,1-.55.036v-4.915a19.775,19.775,0,0,1,9.9-17.134l1.872-1.077,14.693-8.49Z" transform="translate(-173.21 -237.26)"/>
      </g>
      <path id="Path_248" data-name="Path 248" d="M216.412,289.2l8.881-.029L238,281.83h0l-12.449,9-9.373.13Z" transform="translate(-167.461 -201.208)" fill="#e0e0e0"/>
      <path id="Path_249" data-name="Path 249" d="M185.746,304.615s16.01-6.037,17.371-6.746a34.748,34.748,0,0,0,4.531-3.308,1.925,1.925,0,0,0-.239-2.584s-6.514-.3-8.186.217c-.934.282-16,5.117-16,5.117Z" transform="translate(-158.357 -203.987)" fill="#e0e0e0"/>
      <path id="Path_250" data-name="Path 250" d="M184.562,299.913c-1.325-1.136-2.656-.666-2.982,1.042a6.044,6.044,0,0,0,1.817,5.161c1.325,1.136,2.656.673,2.982-1.042a6.051,6.051,0,0,0-1.817-5.161Z" transform="translate(-157.89 -206.031)" fill="#455a64"/>
    </g>
  </g>
</svg>
