<svg xmlns="http://www.w3.org/2000/svg" width="235" height="71" viewBox="0 0 235 71">
  <g id="save-your-address" transform="translate(-63 -430)">
    <rect id="Rectangle_96" data-name="Rectangle 96" width="235" height="71" rx="5" transform="translate(63 430)" fill="#faf7f0"/>
    <rect id="Rectangle_99" data-name="Rectangle 99" width="54" height="54" rx="5" transform="translate(72 439)" fill="#fff"/>
    <text id="Save_your_address" data-name="Save your address" transform="translate(142 470)" font-size="13" font-family="Poppins-Regular, Poppins"><tspan x="0" y="0">Save your address</tspan></text>
    <g id="location" transform="translate(74.046 445.173)">
      <path id="Path_267" data-name="Path 267" d="M29.431,25.065c.061-.1.121-.2.182-.3,2.722-4.506,4.091-8.447,4.071-11.714a8.5,8.5,0,1,0-17.009,0c-.02,3.268,1.35,7.21,4.072,11.715.061.1.121.2.182.3-5.73.708-9.528,2.756-9.528,5.187,0,3.052,6.051,5.443,13.779,5.443S38.958,33.3,38.958,30.252c0-2.431-3.8-4.479-9.528-5.187ZM17.592,13.056a7.587,7.587,0,0,1,15.175,0c.039,6.513-6.049,14.545-7.588,16.471C23.64,27.6,17.552,19.571,17.592,13.056Zm7.587,21.723c-7.694,0-12.862-2.341-12.862-4.526,0-1.939,3.832-3.742,9.151-4.327A48.54,48.54,0,0,0,24.83,30.55a.458.458,0,0,0,.7,0,48.543,48.543,0,0,0,3.362-4.625c5.318.585,9.151,2.388,9.151,4.327C38.042,32.438,32.873,34.779,25.179,34.779Z" transform="translate(0 0)"/>
      <path id="Path_268" data-name="Path 268" d="M34.773,105.98a12.524,12.524,0,0,1-4.6-1.29.458.458,0,1,0-.48.781,13.374,13.374,0,0,0,4.961,1.418.445.445,0,0,0,.059,0,.458.458,0,0,0,.058-.913Z" transform="translate(-13.342 -73.857)"/>
      <path id="Path_269" data-name="Path 269" d="M60.095,110.607c-.639.015-1.3.011-1.954-.013a.459.459,0,1,0-.034.917c.4.015.812.022,1.218.022q.4,0,.791-.009a.458.458,0,0,0,.448-.469.453.453,0,0,0-.469-.448Z" transform="translate(-34.146 -78.264)"/>
      <path id="Path_270" data-name="Path 270" d="M56.964,26.115a3.871,3.871,0,1,0-3.871,3.872A3.871,3.871,0,0,0,56.964,26.115Zm-6.825,0a2.954,2.954,0,1,1,2.955,2.955A2.954,2.954,0,0,1,50.138,26.115Z" transform="translate(-27.913 -13.058)"/>
    </g>
  </g>
</svg>
