<svg xmlns="http://www.w3.org/2000/svg" width="39" height="40" viewBox="0 0 39 40">
  <g id="search-3" transform="translate(-321 -69)">
    <g id="Rectangle_311" data-name="Rectangle 311" transform="translate(321 69)" fill="none" stroke="#707070" stroke-width="0.3">
      <rect width="39" height="40" rx="5" stroke="none"/>
      <rect x="0.15" y="0.15" width="38.7" height="39.7" rx="4.85" fill="none"/>
    </g>
    <g id="Icon_ionic-ios-search" data-name="Icon ionic-ios-search" transform="translate(332.141 80.664)">
      <path id="Icon_ionic-ios-search-2" data-name="Icon ionic-ios-search" d="M20.972,19.958l-4.636-4.679a6.606,6.606,0,1,0-1,1.016l4.605,4.649a.713.713,0,0,0,1.007.026A.718.718,0,0,0,20.972,19.958Zm-9.827-3.607a5.216,5.216,0,1,1,3.689-1.528A5.184,5.184,0,0,1,11.145,16.351Z" transform="translate(-4.5 -4.493)"/>
    </g>
  </g>
</svg>
