<svg xmlns="http://www.w3.org/2000/svg" xmlns:xlink="http://www.w3.org/1999/xlink" width="59" height="59" viewBox="0 0 59 59">
  <defs>
    <filter id="Ellipse_22" x="0" y="0" width="59" height="59" filterUnits="userSpaceOnUse">
      <feOffset dy="3" input="SourceAlpha"/>
      <feGaussianBlur stdDeviation="3" result="blur"/>
      <feFlood flood-opacity="0.161"/>
      <feComposite operator="in" in2="blur"/>
      <feComposite in="SourceGraphic"/>
    </filter>
  </defs>
  <g id="settings-profile" transform="translate(-178 -220)">
    <g transform="matrix(1, 0, 0, 1, 178, 220)" filter="url(#Ellipse_22)">
      <circle id="Ellipse_22-2" data-name="Ellipse 22" cx="20.5" cy="20.5" r="20.5" transform="translate(9 6)" fill="#fff"/>
    </g>
    <path id="Icon_ionic-ios-settings" data-name="Icon ionic-ios-settings" d="M21.471,13.749A2.38,2.38,0,0,1,23,11.528a9.435,9.435,0,0,0-1.142-2.751,2.412,2.412,0,0,1-.968.207,2.375,2.375,0,0,1-2.173-3.343A9.407,9.407,0,0,0,15.97,4.5a2.378,2.378,0,0,1-4.441,0A9.435,9.435,0,0,0,8.778,5.642,2.375,2.375,0,0,1,6.605,8.985a2.334,2.334,0,0,1-.968-.207A9.644,9.644,0,0,0,4.5,11.533a2.38,2.38,0,0,1,0,4.441,9.435,9.435,0,0,0,1.142,2.751,2.376,2.376,0,0,1,3.136,3.136A9.49,9.49,0,0,0,11.533,23a2.374,2.374,0,0,1,4.432,0,9.435,9.435,0,0,0,2.751-1.142,2.378,2.378,0,0,1,3.136-3.136,9.49,9.49,0,0,0,1.142-2.751A2.392,2.392,0,0,1,21.471,13.749ZM13.792,17.6a3.854,3.854,0,1,1,3.854-3.854A3.853,3.853,0,0,1,13.792,17.6Z" transform="translate(193.451 232.249)" fill="#b5bad1"/>
  </g>
</svg>
