<svg xmlns="http://www.w3.org/2000/svg" width="24.484" height="22.187" viewBox="0 0 24.484 22.187">
  <g id="shirts-icon" transform="translate(0 -24.013)">
    <path id="Path_325" data-name="Path 325" d="M202.732,27.073a2.7,2.7,0,0,0,2.636-2.718v-.223a.119.119,0,0,0-.119-.119h-5.117a.119.119,0,0,0-.119.119V24.4A2.681,2.681,0,0,0,202.732,27.073Z" transform="translate(-190.449)" fill="#26285d"/>
    <path id="Path_326" data-name="Path 326" d="M169.351,256.013h-1.274a.065.065,0,0,0-.065.065v.508a2.486,2.486,0,0,0,2.486,2.487h.484a.065.065,0,0,0,.042-.116l-1.335-1.112a.391.391,0,0,1-.075-.527.383.383,0,0,1,.554-.069l1.561,1.3a.065.065,0,0,0,.107-.05A2.486,2.486,0,0,0,169.351,256.013Z" transform="translate(-159.978 -220.906)" fill="#26285d"/>
    <path id="Path_327" data-name="Path 327" d="M167.567,29.434a4.208,4.208,0,0,0,8.307,0c0-.012.021-.1.085-.414a.119.119,0,0,0-.063-.131l-.56-.28a.119.119,0,0,0-.172.106h0a3.443,3.443,0,1,1-6.886.044v-.044a.119.119,0,0,0-.172-.106l-.552.276a.119.119,0,0,0-.064.128C167.582,29.514,167.565,29.422,167.567,29.434Z" transform="translate(-159.478 -4.364)" fill="#26285d"/>
    <path id="Path_328" data-name="Path 328" d="M24.434,52.268c-.068-.259.119.111-3.083-5.539a2.76,2.76,0,0,0-1.208-1.178l-2.8-1.4a.119.119,0,0,0-.17.082l-.027.129a4.973,4.973,0,0,1-9.815,0l-.023-.124a.119.119,0,0,0-.17-.085l-2.8,1.4a2.76,2.76,0,0,0-1.208,1.178C-.069,52.379.117,52.011.05,52.268a1.462,1.462,0,0,0,1.087,1.8l2.9.669a.143.143,0,0,0,.176-.14V51.6a.391.391,0,0,1,.357-.395.382.382,0,0,1,.408.382V64.216a1.148,1.148,0,0,0,1.148,1.148H18.363a1.148,1.148,0,0,0,1.148-1.148V51.6a.391.391,0,0,1,.357-.395.382.382,0,0,1,.408.382V54.6a.143.143,0,0,0,.176.14l2.9-.668A1.463,1.463,0,0,0,24.434,52.268Zm-7.219,2.575a3.252,3.252,0,0,1-3.252,3.252H12.72a.1.1,0,0,0-.1.1v1.421a.391.391,0,0,1-.357.395.382.382,0,0,1-.408-.382V58.191a.1.1,0,0,0-.1-.1H10.521a3.252,3.252,0,0,1-3.252-3.252v-.956a.383.383,0,0,1,.383-.383H9.373a3.253,3.253,0,0,1,2.787,1.579.1.1,0,0,0,.164,0A3.253,3.253,0,0,1,15.111,53.5h1.721a.383.383,0,0,1,.383.383v.956Z" transform="translate(0 -19.163)" fill="#26285d"/>
    <path id="Path_329" data-name="Path 329" d="M264.013,258.5a.065.065,0,0,0,.107.05l1.561-1.3a.383.383,0,0,1,.49.588l-1.345,1.121a.065.065,0,0,0,.042.116h.484a2.486,2.486,0,0,0,2.486-2.486v-.508a.065.065,0,0,0-.065-.065H266.5A2.486,2.486,0,0,0,264.013,258.5Z" transform="translate(-251.388 -220.906)" fill="#26285d"/>
  </g>
</svg>
