<svg xmlns="http://www.w3.org/2000/svg" width="27.028" height="23.755" viewBox="0 0 27.028 23.755">
  <g id="shopping-cart-white" transform="translate(0 0)">
    <path id="Path_280" data-name="Path 280" d="M8.763,15.837H23.069a.789.789,0,0,0,.761-.574L27,4.177a.791.791,0,0,0-.761-1.009H6.935L6.369.62A.792.792,0,0,0,5.6,0H.792a.792.792,0,0,0,0,1.584H4.96L7.819,14.451A2.374,2.374,0,0,0,8.763,19H23.069a.792.792,0,1,0,0-1.584H8.763a.792.792,0,0,1,0-1.584Zm0,0" fill="#fff"/>
    <path id="Path_281" data-name="Path 281" d="M151,362.38A2.376,2.376,0,1,0,153.376,360,2.378,2.378,0,0,0,151,362.38Zm0,0" transform="translate(-143.029 -341)" fill="#fff"/>
    <path id="Path_282" data-name="Path 282" d="M362,362.38A2.376,2.376,0,1,0,364.38,360,2.378,2.378,0,0,0,362,362.38Zm0,0" transform="translate(-342.894 -341)" fill="#fff"/>
  </g>
</svg>
