<svg xmlns="http://www.w3.org/2000/svg" width="23.328" height="21.955" viewBox="0 0 23.328 21.955">
  <g id="shopping-cart-empty-side-view" transform="translate(0 -13.148)">
    <path id="Path_275" data-name="Path 275" d="M23.193,17.336a.748.748,0,0,0-.582-.32L8.141,16.392a.748.748,0,0,0-.064,1.5l13.491.582-2.653,8.276H7.11L4.978,15.134a.748.748,0,0,0-.463-.561L1.022,13.2a.749.749,0,1,0-.548,1.393l3.106,1.22,2.17,11.816a.749.749,0,0,0,.736.613h.36l-.822,2.283a.624.624,0,0,0,.587.835h.577a2.245,2.245,0,1,0,3.338,0h4.9a2.245,2.245,0,1,0,3.338,0h.7a.624.624,0,1,0,0-1.247H7.5l.674-1.871H19.461a.748.748,0,0,0,.713-.52l3.119-9.73A.747.747,0,0,0,23.193,17.336ZM8.857,33.856a1,1,0,1,1,1-1A1,1,0,0,1,8.857,33.856Zm8.233,0a1,1,0,1,1,1-1A1,1,0,0,1,17.091,33.856Z" transform="translate(0)"/>
  </g>
</svg>
