<svg xmlns="http://www.w3.org/2000/svg" viewBox="0 0 1162 234.01"><defs><style>.cls-1{isolation:isolate;}.cls-2{fill:#ff8533;}.cls-3{fill:#26285d;}</style></defs><g id="Layer_2" data-name="Layer 2"><g id="vendy_blue" data-name="vendy blue" class="cls-1"><g id="Circle"><path class="cls-2" d="M184.18,77A92.74,92.74,0,0,0,92.86,0C42.14-.06.06,41.89,0,92.55a92.7,92.7,0,0,0,76.87,91.39,13.51,13.51,0,0,0,4.64-26.61,65.66,65.66,0,1,1,76-75.77A13.52,13.52,0,0,0,184.18,77Z"/></g><g id="Vendy"><path class="cls-3" d="M339.61,30.81,176.75,126.44a7.72,7.72,0,0,1-7.85,0L86.52,77.63c-7-4.15-14.85,4-10.44,10.82l91.26,142a7.73,7.73,0,0,0,12.25,1L324.83,69.79l24.44-27.15C355.18,36.08,347.23,26.34,339.61,30.81Zm193.45,78a44.87,44.87,0,0,0-13.93-9.28,44.05,44.05,0,0,0-34.06,0,44.23,44.23,0,0,0-23.44,23.3,43.64,43.64,0,0,0,0,34.2,44,44,0,0,0,23.44,23.27,43.42,43.42,0,0,0,17.1,3.4,53.41,53.41,0,0,0,9.47-.78,41.14,41.14,0,0,0,7.68-2.16,33.34,33.34,0,0,0,6.11-3.18,35.68,35.68,0,0,0,4.78-3.81,8.6,8.6,0,0,0,3.45-6,9.57,9.57,0,0,0-1.52-6,10.27,10.27,0,0,0-1.84-2.34,6.39,6.39,0,0,0-2.57-1.52,9.27,9.27,0,0,0-4.42-.41,10,10,0,0,0-4.68,2.16,19.89,19.89,0,0,1-6.62,4.73,23.77,23.77,0,0,1-9.84,1.8,24.14,24.14,0,0,1-8-1.34,24.67,24.67,0,0,1-6.94-3.72,24.33,24.33,0,0,1-5.38-5.7,24.72,24.72,0,0,1-3.35-7.17h58.73a9,9,0,0,0,6.49-2.44,8.36,8.36,0,0,0,2.52-6.3,42,42,0,0,0-3.63-16.91A45.1,45.1,0,0,0,533.06,108.84ZM477.9,133a24.61,24.61,0,0,1,3.13-7.68,24.94,24.94,0,0,1,5.42-6.16,24.66,24.66,0,0,1,7.31-4.09,25.5,25.5,0,0,1,8.69-1.47,26.08,26.08,0,0,1,16.13,5.51,24.62,24.62,0,0,1,5.52,6.12,25.51,25.51,0,0,1,3.26,7.77Zm147.22-24.78a33.55,33.55,0,0,0-11.32-8.87,33,33,0,0,0-14.64-3.22A29,29,0,0,0,586.65,99a40.57,40.57,0,0,0-10.95,7.62l0-1.3a9.29,9.29,0,0,0-2.58-6.51,8.89,8.89,0,0,0-2.85-2,8.56,8.56,0,0,0-3.58-.74,8.76,8.76,0,0,0-3.59.73,10.14,10.14,0,0,0-2.94,2,9.14,9.14,0,0,0-2,2.89,8.77,8.77,0,0,0-.74,3.59v68.4a8.74,8.74,0,0,0,.74,3.59,9.73,9.73,0,0,0,2,2.9,8.88,8.88,0,0,0,2.95,1.93,9.5,9.5,0,0,0,3.54.69,8.95,8.95,0,0,0,9.1-9.09V138.24a27.09,27.09,0,0,1,1.6-9.42,23.75,23.75,0,0,1,4.46-7.57,20,20,0,0,1,6.8-5,20.42,20.42,0,0,1,8.55-1.8,18.8,18.8,0,0,1,8.23,1.75,17.49,17.49,0,0,1,6.16,4.91,22.42,22.42,0,0,1,3.86,7.62,37.14,37.14,0,0,1,1.43,10V174a8.6,8.6,0,0,0,2.63,6.43,9.53,9.53,0,0,0,13,0,8.64,8.64,0,0,0,2.64-6.44V138.63a53,53,0,0,0-2.62-17A41.61,41.61,0,0,0,625.12,108.25Zm99.53-43.17a8.85,8.85,0,0,0-6.48,2.58,8.62,8.62,0,0,0-2.62,6.43v30.25a45.23,45.23,0,0,0-11.86-6,43.76,43.76,0,0,0-30.61,1.29,44.66,44.66,0,0,0-14,9.37,43.73,43.73,0,0,0-9.42,13.93,43.88,43.88,0,0,0,0,34.11A43.62,43.62,0,0,0,659.11,171a44.69,44.69,0,0,0,14,9.38,43.45,43.45,0,0,0,30.65,1.24,44.3,44.3,0,0,0,11.91-6.16,9.3,9.3,0,0,0,15.53,4.78,8.56,8.56,0,0,0,2.67-6.44V74.09a8.56,8.56,0,0,0-2.67-6.43A9,9,0,0,0,724.65,65.08Zm-9.1,76a24.3,24.3,0,0,1-2.26,9.47,26.17,26.17,0,0,1-5.46,7.72,25,25,0,0,1-8,5.19,25.23,25.23,0,0,1-9.79,1.89,24.94,24.94,0,0,1-9.88-2,25.44,25.44,0,0,1-8.09-5.42,26.26,26.26,0,0,1-5.47-8.09,25.32,25.32,0,0,1,0-19.82,26.39,26.39,0,0,1,5.47-8,25.47,25.47,0,0,1,8.09-5.43,25.11,25.11,0,0,1,9.88-2,25.16,25.16,0,0,1,23.21,14.75,24.86,24.86,0,0,1,2.26,9.61Zm109.22-39a9,9,0,0,0-1.93-3,10.23,10.23,0,0,0-3-2.16,8.05,8.05,0,0,0-3.54-.83,9.05,9.05,0,0,0-3.4.64,9.62,9.62,0,0,0-2.94,1.88,9.76,9.76,0,0,0-2.16,3L785,152.52l-22.43-50.85a10.32,10.32,0,0,0-2.16-3A8.89,8.89,0,0,0,754,96.07a8.24,8.24,0,0,0-3.54.82,10.1,10.1,0,0,0-3,2.16,9.49,9.49,0,0,0-1.88,3,8.93,8.93,0,0,0-.6,3.5,8.66,8.66,0,0,0,.88,3.58l29.41,65-12.5,28.14a10.28,10.28,0,0,0-.73,7.08,7.39,7.39,0,0,0,4.41,5,8.3,8.3,0,0,0,3.58.83,9.49,9.49,0,0,0,3.49-.65,9.21,9.21,0,0,0,3-1.88,9.64,9.64,0,0,0,2.16-3l45.78-100.4a8.81,8.81,0,0,0,.87-3.58A9.14,9.14,0,0,0,824.77,102.13ZM443.83,98.67a10.68,10.68,0,0,0-7-2.62,8.81,8.81,0,0,0-5,1.52,10.37,10.37,0,0,0-3.64,4.58l-23.54,52.17L380.91,102q-2.88-5.94-9-5.93a11.56,11.56,0,0,0-7.54,2.71,8.25,8.25,0,0,0-3.3,6.6,8.54,8.54,0,0,0,.85,3.9l31.5,65.56a10.88,10.88,0,0,0,4.49,4.91,12.24,12.24,0,0,0,6.18,1.69,11.67,11.67,0,0,0,6.18-1.69,11.1,11.1,0,0,0,4.32-4.91L446,109.26a9.1,9.1,0,0,0,1-4.07A8.19,8.19,0,0,0,443.83,98.67Z"/></g><g id="Way"><path class="cls-2" d="M970.75,99.9a8.66,8.66,0,0,0-5.82-2.23c-3.42,0-5.77,1.72-7,5.14l-22.08,57.87-22.6-57.53A7.93,7.93,0,0,0,910,99a8.7,8.7,0,0,0-4.62-1.37A9,9,0,0,0,900.57,99a8,8,0,0,0-3.26,4.11L874.72,161l-22.08-58.38a7,7,0,0,0-7-5,9.87,9.87,0,0,0-6.25,2.23,6.9,6.9,0,0,0-2.82,5.65,6.35,6.35,0,0,0,.68,2.91l28.25,69.34a8.67,8.67,0,0,0,3.68,4.19,10.15,10.15,0,0,0,5.22,1.46A9.59,9.59,0,0,0,879.6,182a8.09,8.09,0,0,0,3.33-4.19l21.74-55,22.26,55a8,8,0,0,0,3.42,4.19,9.74,9.74,0,0,0,5.14,1.46,10,10,0,0,0,5.3-1.46,8,8,0,0,0,3.43-4.19l28.41-69.34a6.74,6.74,0,0,0,.69-3.08A7,7,0,0,0,970.75,99.9Zm88.34,9a44.51,44.51,0,0,0-13.83-9.23,43.76,43.76,0,0,0-33.92,0,44.84,44.84,0,0,0-14,9.37A43.77,43.77,0,0,0,987.94,123a44,44,0,0,0,0,34.12,44.35,44.35,0,0,0,23.4,23.33,42.62,42.62,0,0,0,17,3.44,38.55,38.55,0,0,0,16.37-3.52,47.62,47.62,0,0,0,13.51-9.27l.09,4.57a7.26,7.26,0,0,0,1.89,5,6.17,6.17,0,0,0,4.82,2.1,6.73,6.73,0,0,0,5.06-2.12,7.06,7.06,0,0,0,2-5.05V139.51a44,44,0,0,0-3.63-16.9A43.28,43.28,0,0,0,1059.09,108.88ZM1056,151.66a30,30,0,0,1-15.88,16,30.13,30.13,0,0,1-23.57,0,30.11,30.11,0,0,1-9.53-6.49,30.89,30.89,0,0,1-6.4-9.53,29,29,0,0,1-2.34-11.6,29.54,29.54,0,0,1,2.34-11.74,29.77,29.77,0,0,1,15.93-15.93,30.72,30.72,0,0,1,23.57,0,30.2,30.2,0,0,1,9.53,6.4,29.57,29.57,0,0,1,6.35,9.53,30,30,0,0,1,2.3,11.74A29.5,29.5,0,0,1,1056,151.66Zm105.5-51a7,7,0,0,0-3.63-3.86,6.14,6.14,0,0,0-5.29-.18,7,7,0,0,0-3.81,3.77l-26.29,59.48-26-59.48a7,7,0,0,0-3.81-3.77,6.35,6.35,0,0,0-5.29.09,6,6,0,0,0-2.2,1.61,8.26,8.26,0,0,0-1.43,2.3,6.44,6.44,0,0,0-.46,2.62A7,7,0,0,0,1084,106l31.35,70.24-12.78,29a7.35,7.35,0,0,0-.6,5.24,5.9,5.9,0,0,0,3.36,3.86l5.28.14a7.27,7.27,0,0,0,3.91-3.73L1161.37,106A6.62,6.62,0,0,0,1161.51,100.66Z"/></g></g></g></svg>