<svg xmlns="http://www.w3.org/2000/svg" width="183.36" height="36.925" viewBox="0 0 183.36 36.925">
  <g id="vendyway_logo_-_2" data-name="vendyway logo - 2" transform="translate(0 0)">
    <g id="vendy_blue" data-name="vendy blue" transform="translate(0 0)">
      <g id="Circle" transform="translate(0 0)">
        <path id="Path_287" data-name="Path 287" d="M29.063,12.15A14.635,14.635,0,1,0,12.13,29.025a2.132,2.132,0,0,0,.732-4.2A10.361,10.361,0,1,1,24.854,12.87a2.135,2.135,0,0,0,4.208-.72Z" transform="translate(0 0)" fill="#ff8533"/>
      </g>
      <g id="Vendy" transform="translate(11.803 4.683)">
        <path id="Path_288" data-name="Path 288" d="M116.586,29.855l-25.7,15.09a1.218,1.218,0,0,1-1.239,0l-13-7.7A1.22,1.22,0,0,0,75,38.95L89.4,61.357a1.22,1.22,0,0,0,1.933.158l22.918-25.509,3.857-4.284A1.219,1.219,0,0,0,116.586,29.855Zm30.526,12.308a7.08,7.08,0,0,0-2.2-1.464,6.916,6.916,0,1,0-5.375,12.745,6.852,6.852,0,0,0,2.7.537,8.428,8.428,0,0,0,1.494-.123,6.492,6.492,0,0,0,1.212-.341,5.261,5.261,0,0,0,.964-.5,5.628,5.628,0,0,0,.754-.6,1.357,1.357,0,0,0,.544-.947,1.51,1.51,0,0,0-.24-.947,1.621,1.621,0,0,0-.29-.369,1.008,1.008,0,0,0-.406-.24,1.463,1.463,0,0,0-.7-.065,1.578,1.578,0,0,0-.738.341,3.139,3.139,0,0,1-1.045.746,3.751,3.751,0,0,1-1.553.284,3.809,3.809,0,0,1-1.262-.211,3.893,3.893,0,0,1-1.1-.587,3.839,3.839,0,0,1-.849-.9,3.9,3.9,0,0,1-.529-1.131h9.267A1.42,1.42,0,0,0,148.794,48a1.319,1.319,0,0,0,.4-.994,6.628,6.628,0,0,0-.573-2.668,7.117,7.117,0,0,0-1.507-2.173Zm-8.7,3.817a3.884,3.884,0,0,1,.494-1.212,3.936,3.936,0,0,1,.855-.972,3.891,3.891,0,0,1,1.153-.645,4.024,4.024,0,0,1,1.371-.232,4.115,4.115,0,0,1,2.545.869,3.885,3.885,0,0,1,.871.966,4.025,4.025,0,0,1,.514,1.226Zm23.231-3.91a5.294,5.294,0,0,0-1.786-1.4,5.207,5.207,0,0,0-2.31-.508,4.576,4.576,0,0,0-1.974.453,6.4,6.4,0,0,0-1.728,1.2v-.205a1.466,1.466,0,0,0-.407-1.027,1.4,1.4,0,0,0-.45-.316,1.351,1.351,0,0,0-.565-.117,1.382,1.382,0,0,0-.566.115,1.6,1.6,0,0,0-.464.316,1.442,1.442,0,0,0-.316.456,1.384,1.384,0,0,0-.117.566V52.4a1.379,1.379,0,0,0,.117.566,1.536,1.536,0,0,0,.316.458,1.4,1.4,0,0,0,.465.3,1.5,1.5,0,0,0,.559.109,1.412,1.412,0,0,0,1.436-1.434v-5.6a4.275,4.275,0,0,1,.252-1.486,3.748,3.748,0,0,1,.7-1.195,3.156,3.156,0,0,1,1.073-.789,3.222,3.222,0,0,1,1.349-.284,2.967,2.967,0,0,1,1.3.276,2.76,2.76,0,0,1,.972.775,3.538,3.538,0,0,1,.609,1.2,5.861,5.861,0,0,1,.226,1.578v5.565a1.357,1.357,0,0,0,.415,1.015,1.5,1.5,0,0,0,2.051,0,1.363,1.363,0,0,0,.417-1.016v-5.58a8.363,8.363,0,0,0-.413-2.683,6.566,6.566,0,0,0-1.163-2.111Zm15.705-6.812a1.4,1.4,0,0,0-1.023.407,1.36,1.36,0,0,0-.413,1.015v4.773a7.137,7.137,0,0,0-1.871-.947,6.905,6.905,0,0,0-4.83.2A7.047,7.047,0,0,0,167,42.188a6.905,6.905,0,0,0,0,9.788,7.052,7.052,0,0,0,2.209,1.48,6.856,6.856,0,0,0,4.836.2,6.99,6.99,0,0,0,1.879-.972,1.468,1.468,0,0,0,2.451.754,1.351,1.351,0,0,0,.421-1.016V36.684a1.351,1.351,0,0,0-.421-1.015,1.42,1.42,0,0,0-1.034-.407ZM175.908,47.25a3.834,3.834,0,0,1-.357,1.494,4.13,4.13,0,0,1-.862,1.218,4.06,4.06,0,0,1-4.366.8,4.015,4.015,0,0,1-1.277-.855,4.143,4.143,0,0,1-.863-1.277,4,4,0,0,1,0-3.128,4.164,4.164,0,0,1,.863-1.262,4.019,4.019,0,0,1,1.277-.857,4,4,0,0,1,5.578,3.528ZM193.143,41.1a1.42,1.42,0,0,0-.3-.473,1.615,1.615,0,0,0-.473-.341,1.27,1.27,0,0,0-.559-.131,1.428,1.428,0,0,0-.537.1,1.518,1.518,0,0,0-.464.3,1.54,1.54,0,0,0-.341.473l-3.6,8.038-3.539-8.024a1.628,1.628,0,0,0-.341-.473,1.4,1.4,0,0,0-1.011-.41,1.3,1.3,0,0,0-.559.129,1.594,1.594,0,0,0-.473.341,1.5,1.5,0,0,0-.3.473,1.409,1.409,0,0,0-.095.552,1.366,1.366,0,0,0,.139.565l4.641,10.257-1.972,4.44a1.622,1.622,0,0,0-.115,1.117,1.166,1.166,0,0,0,.7.789,1.31,1.31,0,0,0,.565.131,1.5,1.5,0,0,0,.551-.1,1.453,1.453,0,0,0,.473-.3,1.521,1.521,0,0,0,.341-.473l7.224-15.843a1.39,1.39,0,0,0,.137-.565,1.443,1.443,0,0,0-.088-.559Zm-60.111-.533a1.685,1.685,0,0,0-1.1-.413,1.39,1.39,0,0,0-.789.24,1.636,1.636,0,0,0-.574.723l-3.715,8.232L123.1,41.088a1.49,1.49,0,0,0-1.42-.936,1.824,1.824,0,0,0-1.19.428,1.3,1.3,0,0,0-.521,1.041,1.348,1.348,0,0,0,.134.615l4.971,10.345a1.717,1.717,0,0,0,.708.775,1.932,1.932,0,0,0,.975.267,1.841,1.841,0,0,0,.975-.267,1.752,1.752,0,0,0,.682-.775l4.956-10.348a1.436,1.436,0,0,0,.158-.642A1.292,1.292,0,0,0,133.032,40.563Z" transform="translate(-74.8 -29.676)" fill="#26285d"/>
      </g>
      <g id="Way" transform="translate(132.008 15.162)">
        <path id="Path_289" data-name="Path 289" d="M857.743,96.689a1.367,1.367,0,0,0-.918-.352,1.1,1.1,0,0,0-1.1.811l-3.484,9.132L848.669,97.2a1.251,1.251,0,0,0-.513-.655,1.373,1.373,0,0,0-.729-.216,1.42,1.42,0,0,0-.759.216,1.262,1.262,0,0,0-.514.649l-3.565,9.135-3.484-9.212a1.1,1.1,0,0,0-1.1-.789,1.558,1.558,0,0,0-.986.352,1.089,1.089,0,0,0-.445.891,1,1,0,0,0,.107.459l4.458,10.942a1.368,1.368,0,0,0,.581.661,1.6,1.6,0,0,0,.824.23,1.513,1.513,0,0,0,.821-.221,1.276,1.276,0,0,0,.525-.661l3.43-8.679,3.513,8.679a1.262,1.262,0,0,0,.54.661,1.537,1.537,0,0,0,.811.23,1.578,1.578,0,0,0,.836-.23,1.262,1.262,0,0,0,.541-.661l4.483-10.942a1.064,1.064,0,0,0,.109-.486,1.1,1.1,0,0,0-.406-.866Zm13.94,1.42a7.024,7.024,0,0,0-2.182-1.456,6.905,6.905,0,0,0-5.352,0,7.075,7.075,0,0,0-2.209,1.479,6.92,6.92,0,0,0-1.483,7.587,7,7,0,0,0,3.692,3.681,6.725,6.725,0,0,0,2.683.543,6.083,6.083,0,0,0,2.583-.555,7.515,7.515,0,0,0,2.132-1.463l.014.721a1.146,1.146,0,0,0,.3.789.974.974,0,0,0,.761.331,1.062,1.062,0,0,0,.8-.335,1.114,1.114,0,0,0,.316-.8v-5.695a6.944,6.944,0,0,0-.573-2.667,6.831,6.831,0,0,0-1.477-2.167Zm-.488,6.747a4.73,4.73,0,0,1-7.729,1.5,4.873,4.873,0,0,1-1.01-1.5,4.575,4.575,0,0,1-.369-1.83,4.711,4.711,0,0,1,2.883-4.366,4.848,4.848,0,0,1,3.719,0,4.765,4.765,0,0,1,1.5,1.01,4.666,4.666,0,0,1,1,1.5,4.734,4.734,0,0,1,.363,1.853A4.655,4.655,0,0,1,871.195,104.856Zm16.648-8.048a1.1,1.1,0,0,0-.573-.609.969.969,0,0,0-.835-.028,1.1,1.1,0,0,0-.6.595l-4.148,9.386-4.1-9.386a1.1,1.1,0,0,0-.6-.595,1,1,0,0,0-.835.014.947.947,0,0,0-.347.254,1.3,1.3,0,0,0-.226.363,1.016,1.016,0,0,0-.073.413,1.105,1.105,0,0,0,.112.436l4.947,11.084-2.017,4.576a1.16,1.16,0,0,0-.095.827.931.931,0,0,0,.53.609l.833.022a1.147,1.147,0,0,0,.617-.589l7.393-16.529a1.045,1.045,0,0,0,.022-.843Z" transform="translate(-836.569 -96.087)" fill="#ff8533"/>
      </g>
    </g>
  </g>
</svg>
