<svg xmlns="http://www.w3.org/2000/svg" width="20.964" height="26.682" viewBox="0 0 20.964 26.682">
  <g id="watch-icon" transform="translate(-48)">
    <g id="Group_1274" data-name="Group 1274" transform="translate(48)">
      <g id="Group_1273" data-name="Group 1273" transform="translate(0)">
        <path id="Path_320" data-name="Path 320" d="M67.01,12.388h0a9.523,9.523,0,0,0-4.339-7.065L61.341,0H53.718L52.386,5.327a9.514,9.514,0,0,0,0,16.028l1.332,5.327h7.623l1.331-5.323a9.524,9.524,0,0,0,4.339-7.065h1.954V12.388Zm-9.481,8.576a7.623,7.623,0,1,1,7.623-7.623A7.632,7.632,0,0,1,57.529,20.964Z" transform="translate(-48)" fill="#26285d"/>
      </g>
    </g>
    <g id="Group_1276" data-name="Group 1276" transform="translate(56.576 8.576)">
      <g id="Group_1275" data-name="Group 1275">
        <path id="Path_321" data-name="Path 321" d="M193.906,148.838V144H192v5.425l2.405,3.47,1.558-1.078Z" transform="translate(-192 -144)" fill="#26285d"/>
      </g>
    </g>
  </g>
</svg>
